<svg xmlns="http://www.w3.org/2000/svg" width="1255" height="836" viewBox="0 0 1255 836">
<g>
<path d="M 491.12 592.75 C484.85,600.88 484.00,601.76 484.00,600.22 C484.00,598.57 493.10,571.00 493.64,571.00 C493.96,571.00 493.93,572.12 493.59,573.50 C493.19,575.08 493.38,576.00 494.11,576.00 C494.88,576.00 495.05,574.73 494.63,572.08 C494.14,569.00 494.76,566.18 497.54,558.83 C501.59,548.17 508.14,533.80 508.70,534.36 C508.91,534.57 508.55,535.89 507.91,537.30 C506.41,540.58 507.48,545.01 509.77,544.98 C511.72,544.96 516.60,540.27 515.66,539.33 C515.32,538.99 514.42,539.23 513.66,539.87 C512.53,540.81 512.33,540.52 512.60,538.26 C513.05,534.41 512.08,531.75 510.45,532.38 C508.62,533.08 509.80,530.03 515.72,518.80 L 520.30 510.11 L 522.40 512.80 C523.55,514.29 525.05,516.17 525.73,517.00 C526.41,517.83 527.58,519.36 528.34,520.42 C529.69,522.30 529.78,522.30 533.13,520.23 C535.00,519.07 538.78,515.57 541.52,512.45 C544.26,509.33 553.25,501.17 561.50,494.31 C569.75,487.46 577.40,481.08 578.50,480.15 C579.60,479.22 584.33,475.57 589.00,472.05 C601.41,462.68 614.25,451.44 624.64,440.83 C633.38,431.90 645.97,415.87 649.26,409.47 C650.12,407.81 652.43,404.00 654.41,401.00 C658.64,394.57 658.86,393.00 655.54,393.00 C652.78,393.00 629.12,400.27 624.50,402.54 C620.62,404.45 599.45,410.20 586.00,413.00 C552.13,420.04 522.51,414.14 495.53,394.96 C490.89,391.67 486.88,388.61 486.61,388.17 C486.11,387.38 522.40,385.56 562.50,384.37 C585.72,383.68 611.10,384.94 637.00,388.06 C655.24,390.26 656.72,390.58 658.95,392.80 C663.04,396.86 664.99,417.16 662.60,430.81 C659.11,450.80 649.70,467.68 632.64,484.50 C617.64,499.30 600.88,511.35 571.50,528.47 C552.01,539.82 530.31,554.14 521.50,561.47 C511.56,569.73 498.56,583.12 491.12,592.75 ZM 467.08 703.86 C461.68,706.69 456.74,709.00 456.13,709.00 C453.99,709.00 455.01,707.38 458.98,704.44 C461.16,702.82 462.97,701.05 462.99,700.50 C463.01,699.95 465.54,696.58 468.61,693.00 C482.09,677.32 494.92,656.40 501.95,638.66 C503.65,634.35 506.01,628.95 507.19,626.66 C511.34,618.60 518.00,597.72 518.00,592.78 C518.00,590.08 517.54,588.00 516.94,588.00 C516.36,588.00 516.19,588.50 516.56,589.10 C516.94,589.71 516.11,589.46 514.71,588.55 C512.70,587.23 512.23,586.19 512.45,583.48 C512.68,580.48 512.50,580.20 510.91,581.05 C508.16,582.52 505.81,586.26 507.12,587.08 C507.72,587.45 507.01,587.75 505.54,587.75 L 502.87 587.75 L 505.68 584.71 C513.66,576.10 520.74,569.85 532.89,560.72 C545.58,551.18 571.76,534.43 572.62,535.29 C572.84,535.51 572.33,537.67 571.49,540.09 C570.65,542.52 567.26,553.05 563.95,563.50 C555.11,591.50 550.47,604.00 543.56,618.50 C524.60,658.24 498.41,687.48 467.08,703.86 ZM 672.46 358.12 C667.54,362.85 666.10,363.13 669.20,358.75 C670.46,356.96 671.63,354.83 671.80,354.00 C671.96,353.17 674.72,347.10 677.92,340.50 C681.12,333.90 685.67,324.07 688.02,318.66 C696.58,298.97 711.90,279.54 722.65,274.76 C735.60,269.00 738.57,268.61 754.86,270.49 C762.91,271.43 772.34,272.44 775.82,272.74 L 782.14 273.28 L 777.88 277.62 C773.23,282.36 773.15,283.69 777.61,281.89 C789.14,277.25 820.32,267.07 834.00,263.48 C843.08,261.09 852.97,258.44 856.00,257.59 C861.44,256.05 883.26,251.88 884.73,252.10 C885.16,252.17 886.55,251.88 887.83,251.47 C889.45,250.95 889.79,250.49 888.93,249.96 C888.14,249.47 888.57,249.18 890.10,249.17 C891.42,249.16 896.51,248.66 901.41,248.07 C909.37,247.11 913.69,247.26 909.89,248.36 C909.13,248.58 899.28,251.30 888.00,254.41 C844.89,266.27 821.07,274.42 802.56,283.62 L 791.62 289.06 L 786.17 287.93 C783.18,287.31 777.98,286.73 774.62,286.65 C769.23,286.52 767.50,287.01 760.12,290.78 C750.00,295.95 748.02,297.39 737.78,307.00 C728.96,315.28 725.00,320.38 720.50,329.27 L 717.50 335.20 L 709.00 337.92 C693.91,342.75 681.09,349.85 672.46,358.12 ZM 564.00 378.00 C564.00,378.62 558.33,379.00 549.00,379.00 C539.67,379.00 534.00,378.62 534.00,378.00 C534.00,377.43 536.85,377.00 540.56,377.00 C544.68,377.00 546.89,376.63 546.50,376.00 C546.14,375.42 547.08,375.00 548.69,374.99 C550.24,374.98 553.71,374.31 556.41,373.49 C559.11,372.67 562.54,372.00 564.04,372.00 C565.54,372.00 568.06,371.33 569.64,370.51 C571.21,369.68 573.40,369.00 574.50,368.98 C576.42,368.94 576.43,368.90 574.63,367.85 C573.12,366.98 573.02,366.60 574.13,365.90 C577.69,363.64 590.00,366.14 590.00,369.12 C590.00,370.46 589.28,371.00 587.50,371.00 C586.12,371.00 584.10,371.90 583.00,373.00 C581.90,374.10 580.21,375.04 579.25,375.10 C581.67,376.53 579.42,376.83 573.25,376.90 C567.82,376.96 564.00,377.41 564.00,378.00 ZM 736.45 285.55 C740.39,289.48 744.76,288.41 747.01,282.97 C748.15,280.23 748.06,279.56 746.30,277.19 C743.55,273.49 737.85,272.94 735.60,276.17 C733.32,279.42 733.62,282.71 736.45,285.55 ZM 637.44 380.91 C641.38,382.41 637.26,382.65 629.00,381.40 C624.33,380.70 614.31,379.80 606.75,379.41 C599.19,379.02 593.00,378.32 593.00,377.85 C593.00,377.38 594.58,377.00 596.50,377.00 C598.42,377.00 600.00,376.65 600.00,376.23 C600.00,375.80 602.54,374.86 605.64,374.14 C610.32,373.05 611.42,373.06 612.13,374.17 C612.60,374.90 612.76,376.09 612.50,376.80 C612.14,377.78 613.56,378.11 618.26,378.12 C621.69,378.13 626.08,378.26 628.00,378.41 C631.26,378.67 632.29,378.94 637.44,380.91 ZM 531.33 497.50 C530.96,497.22 529.84,497.74 528.83,498.65 C526.31,500.94 526.54,499.69 529.51,494.98 C532.50,490.25 533.16,489.97 532.02,493.92 C531.56,495.53 531.37,497.11 531.59,497.42 C531.82,497.74 531.70,497.77 531.33,497.50 ZM 567.50 364.00 C567.84,364.55 567.22,365.00 566.12,365.00 C565.02,365.00 563.84,364.55 563.50,364.00 C563.16,363.45 563.78,363.00 564.88,363.00 C565.98,363.00 567.16,363.45 567.50,364.00 Z" fill="rgb(17,56,53)"/>
<path d="M 564.00 378.00 C564.00,377.41 567.82,376.96 573.25,376.90 C579.42,376.83 581.67,376.53 580.00,376.00 C580.21,375.04 581.90,374.10 583.00,373.00 C584.10,371.90 586.12,371.00 587.50,371.00 C589.28,371.00 590.00,370.46 590.00,369.12 C590.00,366.14 577.69,363.64 574.13,365.90 C573.02,366.60 573.12,366.98 574.63,367.85 C576.43,368.90 576.42,368.94 574.50,368.98 C573.40,369.00 571.21,369.68 569.64,370.51 C568.06,371.33 565.54,372.00 564.04,372.00 C562.54,372.00 559.11,372.67 556.41,373.49 C553.71,374.31 550.24,374.98 548.69,374.99 C547.08,375.00 546.14,375.42 546.50,376.00 C546.89,376.63 544.68,377.00 540.56,377.00 C536.85,377.00 534.00,377.43 534.00,378.00 C534.00,378.35 535.79,378.62 539.00,378.79 C532.48,378.71 527.43,378.45 524.00,378.03 C518.78,377.38 513.38,376.73 512.00,376.59 C510.62,376.44 508.83,376.08 508.00,375.78 C506.72,375.32 495.96,372.86 489.50,371.56 C480.60,369.77 458.93,358.99 446.65,350.26 C437.10,343.47 423.19,330.40 415.48,320.98 C409.56,313.74 409.22,312.89 411.50,311.00 C412.74,309.97 414.17,310.54 419.75,314.24 C423.46,316.71 430.55,320.90 435.50,323.56 C440.45,326.23 446.30,329.44 448.50,330.71 C456.31,335.20 463.01,337.96 471.17,340.04 C475.71,341.20 481.02,342.82 482.96,343.63 C489.49,346.36 504.42,350.18 514.00,351.58 C519.22,352.34 528.45,353.87 534.50,354.97 C540.55,356.08 550.22,357.69 556.00,358.57 C561.78,359.44 568.53,360.76 571.00,361.52 C575.00,362.73 580.82,364.01 589.46,365.58 C591.00,365.86 593.45,366.69 594.88,367.42 C596.32,368.15 601.75,369.74 606.95,370.95 C612.14,372.16 617.54,373.74 618.95,374.45 C622.54,376.27 626.99,377.47 625.00,376.08 C621.35,373.53 630.96,376.79 635.85,379.76 C636.52,380.17 637.09,380.58 637.53,380.94 C637.50,380.93 637.47,380.92 637.44,380.91 C632.29,378.94 631.26,378.67 628.00,378.41 C626.08,378.26 621.69,378.13 618.26,378.12 C613.56,378.11 612.14,377.78 612.50,376.80 C612.76,376.09 612.60,374.90 612.13,374.17 C611.42,373.06 610.32,373.05 605.64,374.14 C602.54,374.86 600.00,375.80 600.00,376.23 C600.00,376.65 598.42,377.00 596.50,377.00 C594.58,377.00 593.00,377.38 593.00,377.85 C593.00,378.32 599.19,379.02 606.75,379.41 C609.34,379.54 612.21,379.74 615.06,379.96 C600.23,378.84 580.16,378.28 561.88,378.57 C563.26,378.42 564.00,378.22 564.00,378.00 ZM 477.41 681.91 C477.45,681.82 477.49,681.74 477.53,681.66 C478.35,679.92 479.94,677.06 481.07,675.30 L 483.12 672.10 L 479.31 669.52 C477.22,668.10 473.95,665.82 472.05,664.44 L 468.61 661.93 L 467.29 664.22 C466.03,666.42 466.01,666.39 466.57,663.50 C469.64,647.83 480.86,615.00 483.15,615.00 C483.62,615.00 484.00,614.39 484.00,613.66 C484.00,612.10 495.01,597.10 502.92,587.75 L 505.54 587.75 C507.01,587.75 507.72,587.45 507.12,587.08 C505.81,586.26 508.16,582.52 510.91,581.05 C512.50,580.20 512.68,580.48 512.45,583.48 C512.23,586.19 512.70,587.23 514.71,588.55 C516.11,589.46 516.94,589.71 516.56,589.10 C516.19,588.50 516.36,588.00 516.94,588.00 C517.54,588.00 518.00,590.08 518.00,592.78 C518.00,597.72 511.34,618.60 507.19,626.66 C506.01,628.95 503.65,634.35 501.95,638.66 C496.47,652.47 487.48,668.21 477.41,681.91 ZM 520.37 510.20 C522.84,505.63 525.07,501.73 526.72,499.16 C539.24,479.54 548.82,466.48 550.50,466.74 C552.74,467.09 551.82,469.73 548.10,473.67 C545.93,475.96 543.97,477.63 543.72,477.39 C543.48,477.15 542.69,477.67 541.96,478.55 C540.85,479.89 540.86,480.30 542.06,481.06 C542.85,481.56 543.14,481.98 542.70,481.98 C541.35,482.01 546.88,487.06 552.17,490.61 C557.93,494.49 559.98,494.78 562.43,492.08 C563.38,491.03 567.74,487.54 572.12,484.33 C586.79,473.58 593.56,468.54 599.03,464.15 C595.69,466.88 592.33,469.53 589.00,472.05 C584.33,475.57 579.60,479.22 578.50,480.15 C577.40,481.08 569.75,487.46 561.50,494.31 C553.25,501.17 544.26,509.33 541.52,512.45 C538.78,515.57 535.00,519.07 533.13,520.23 C529.78,522.30 529.69,522.30 528.34,520.42 C527.58,519.36 526.41,517.83 525.73,517.00 C525.05,516.17 523.55,514.29 522.40,512.80 ZM 455.81 708.99 C455.25,709.06 455.00,708.93 455.00,708.61 C455.00,707.53 462.15,680.52 462.54,680.12 C462.79,679.87 463.00,680.34 463.00,681.17 C463.00,681.99 464.76,684.08 466.90,685.80 L 470.81 688.94 L 473.43 686.88 C473.64,686.71 473.86,686.52 474.08,686.31 C472.28,688.62 470.45,690.86 468.61,693.00 C465.54,696.58 463.01,699.95 462.99,700.50 C462.97,701.05 461.16,702.82 458.98,704.44 C455.22,707.22 454.11,708.82 455.81,708.99 ZM 909.42 247.43 C907.71,247.44 904.92,247.65 901.41,248.07 C896.51,248.66 891.42,249.16 890.10,249.17 C888.57,249.18 888.14,249.47 888.93,249.96 C889.79,250.49 889.45,250.95 887.83,251.47 C886.55,251.88 885.16,252.17 884.73,252.10 C883.26,251.88 861.44,256.05 856.00,257.59 C853.51,258.29 846.39,260.20 838.89,262.19 C852.07,258.56 853.89,257.16 850.25,255.12 C847.93,253.82 849.19,253.39 859.32,252.04 C869.08,250.74 871.28,250.73 870.50,252.00 C870.14,252.58 871.12,253.00 872.83,253.00 C874.46,253.00 876.02,252.38 876.31,251.62 C876.67,250.69 880.04,249.89 886.67,249.16 C899.59,247.75 906.82,247.19 909.42,247.43 ZM 407.85 308.84 C410.31,313.22 408.51,311.82 404.40,306.15 C396.77,295.65 390.91,283.55 395.55,287.89 C396.07,288.38 399.33,289.79 402.78,291.03 C406.24,292.28 409.26,293.61 409.50,293.99 C409.74,294.38 408.79,295.31 407.38,296.06 C405.22,297.22 404.94,297.88 405.51,300.46 C405.87,302.13 406.26,304.17 406.36,305.00 C406.46,305.83 407.13,307.55 407.85,308.84 ZM 831.22 264.23 C816.47,268.33 788.41,277.55 777.61,281.89 C773.15,283.69 773.23,282.36 777.88,277.62 L 782.14 273.28 L 775.82 272.74 C772.34,272.44 762.91,271.43 754.86,270.49 C747.29,269.62 742.60,269.23 738.45,269.65 C742.54,269.22 747.12,269.56 754.36,270.36 C762.14,271.23 769.17,271.88 770.00,271.81 C770.83,271.74 774.04,271.76 777.13,271.84 C781.85,271.97 782.85,272.32 783.29,274.00 C784.19,277.45 792.57,276.68 806.00,271.90 C812.12,269.72 823.28,266.33 831.22,264.23 ZM 501.36 549.38 C501.96,547.84 502.49,546.53 502.94,545.50 C504.84,541.08 507.48,535.45 510.38,529.56 C509.35,532.05 509.47,532.76 510.45,532.38 C512.08,531.75 513.05,534.41 512.60,538.26 C512.33,540.52 512.53,540.81 513.66,539.87 C514.42,539.23 515.32,538.99 515.66,539.33 C516.60,540.27 511.72,544.96 509.77,544.98 C507.48,545.01 506.41,540.58 507.91,537.30 C508.55,535.89 508.91,534.57 508.70,534.36 C508.30,533.96 504.80,541.27 501.36,549.38 ZM 686.37 276.93 C679.39,282.41 682.59,275.72 691.10,267.02 C694.17,263.87 698.11,260.59 699.85,259.72 L 703.01 258.15 L 699.57 262.32 C695.36,267.43 692.36,270.03 691.58,269.25 C691.26,268.93 691.00,269.22 691.00,269.89 C691.00,270.57 690.55,270.84 690.00,270.50 C689.44,270.15 689.00,270.97 689.00,272.37 C689.00,273.86 687.95,275.68 686.37,276.93 ZM 662.42 369.71 C660.81,372.03 659.28,373.94 659.00,373.96 C658.72,373.97 656.74,370.73 654.59,366.74 C651.92,361.80 651.31,360.06 652.67,361.25 C653.77,362.22 654.91,362.76 655.22,362.45 C655.52,362.15 656.23,363.23 656.80,364.86 C657.37,366.50 657.60,368.06 657.32,368.35 C657.03,368.63 657.11,369.37 657.49,369.98 C657.99,370.80 658.56,370.78 659.58,369.94 C660.35,369.30 660.76,368.41 660.49,367.98 C659.58,366.52 661.17,364.04 662.85,364.29 C665.53,364.70 665.48,365.29 662.42,369.71 ZM 758.17 252.87 C762.48,254.46 756.77,254.81 751.97,253.25 C747.96,251.94 744.60,251.54 733.00,250.96 C729.57,250.78 729.59,250.76 733.99,249.90 C738.33,249.05 752.58,250.80 758.17,252.87 ZM 823.57 260.08 C821.38,261.84 819.05,262.53 814.32,262.83 C806.17,263.35 806.12,261.71 814.25,260.14 C817.69,259.47 821.85,258.66 823.50,258.33 L 826.50 257.73 ZM 671.96 309.00 C671.25,310.92 670.30,312.93 669.84,313.45 C668.21,315.29 669.02,311.46 672.25,302.00 C674.99,293.97 675.54,293.00 675.81,295.72 C675.98,297.49 675.47,300.42 674.68,302.22 C673.88,304.02 672.66,307.08 671.96,309.00 ZM 660.11 335.34 C657.43,336.80 654.91,338.00 654.52,338.00 C654.13,338.00 655.71,335.74 658.02,332.97 C661.38,328.96 662.51,328.18 663.62,329.10 C666.01,331.08 665.16,332.60 660.11,335.34 ZM 688.30 318.01 C688.21,318.23 688.11,318.44 688.02,318.66 C685.67,324.07 681.12,333.90 677.92,340.50 C674.72,347.10 671.96,353.17 671.80,354.00 C671.76,354.21 671.65,354.49 671.50,354.83 C672.05,353.39 672.26,351.78 672.51,348.89 C672.85,344.77 674.18,342.13 678.61,336.75 C680.32,334.67 684.10,327.54 687.00,320.90 C687.42,319.94 687.86,318.97 688.30,318.01 ZM 554.00 464.11 C554.00,466.24 552.39,467.45 551.49,465.99 C551.14,465.41 553.63,461.80 557.03,457.97 C563.43,450.75 564.33,449.97 563.36,452.50 C563.05,453.33 562.36,454.00 561.83,454.00 C561.31,454.00 561.16,454.45 561.50,455.00 C561.84,455.55 561.61,456.00 561.00,456.00 C560.39,456.00 560.21,456.56 560.60,457.25 C561.00,457.94 560.98,458.20 560.57,457.82 C559.45,456.82 554.00,462.04 554.00,464.11 ZM 786.43 266.12 C785.31,267.92 781.32,266.91 777.96,263.97 C775.31,261.64 774.97,261.01 776.50,261.28 C777.60,261.46 778.39,262.14 778.26,262.77 C778.13,263.43 778.68,263.68 779.53,263.35 C781.42,262.62 787.16,264.92 786.43,266.12 ZM 531.33 497.50 C531.70,497.77 531.82,497.74 531.59,497.42 C531.37,497.11 531.56,495.53 532.02,493.92 C533.16,489.97 532.50,490.25 529.51,494.98 C526.54,499.69 526.31,500.94 528.83,498.65 C529.84,497.74 530.96,497.22 531.33,497.50 ZM 491.85 575.49 C492.86,572.60 493.89,569.66 494.92,566.78 C494.42,568.93 494.37,570.47 494.63,572.08 C495.05,574.73 494.88,576.00 494.11,576.00 C493.38,576.00 493.19,575.08 493.59,573.50 C493.93,572.12 493.96,571.00 493.64,571.00 C493.50,571.00 492.81,572.79 491.85,575.49 ZM 503.55 587.01 C503.91,586.59 504.27,586.18 504.61,585.78 C512.28,577.03 520.87,569.47 535.02,559.02 C540.78,554.77 550.03,548.62 557.92,543.64 C549.53,548.99 539.42,555.81 532.89,560.72 C520.74,569.85 513.66,576.10 505.68,584.71 ZM 567.50 364.00 C567.16,363.45 565.98,363.00 564.88,363.00 C563.78,363.00 563.16,363.45 563.50,364.00 C563.84,364.55 565.02,365.00 566.12,365.00 C567.22,365.00 567.84,364.55 567.50,364.00 ZM 835.65 270.15 C823.18,274.68 809.38,280.23 802.56,283.62 C811.72,279.07 822.19,274.77 835.65,270.15 ZM 411.00 313.50 C411.00,314.33 411.44,315.00 411.97,315.00 C412.50,315.00 412.68,314.33 412.36,313.50 C412.05,312.67 411.61,312.00 411.39,312.00 C411.18,312.00 411.00,312.67 411.00,313.50 ZM 615.35 449.88 C622.10,443.46 628.70,436.51 634.36,429.94 C631.02,433.95 627.61,437.80 624.64,440.83 C621.71,443.81 618.59,446.85 615.35,449.88 ZM 484.00 600.17 C484.00,600.11 484.00,600.05 484.00,599.98 C484.00,598.90 486.59,590.83 489.92,581.08 C487.25,589.00 484.11,598.91 484.00,600.17 ZM 722.65 274.76 C716.95,277.30 709.97,283.94 703.39,292.56 C709.96,283.84 716.80,277.36 722.65,274.76 ZM 905.93 249.46 C908.18,248.84 909.62,248.44 909.89,248.36 C910.04,248.31 910.18,248.27 910.31,248.23 C909.85,248.67 908.97,249.00 908.16,249.00 C907.94,249.00 907.16,249.16 905.93,249.46 ZM 624.31 380.81 C626.15,381.01 627.76,381.22 629.00,381.40 C633.79,382.13 637.19,382.35 638.43,382.12 C638.42,382.17 638.39,382.21 638.33,382.24 C637.87,382.49 633.61,382.11 628.86,381.40 C627.48,381.20 625.96,381.00 624.31,380.81 ZM 467.08 703.86 C463.56,705.70 460.92,707.01 459.03,707.85 C461.09,706.91 464.01,705.46 467.08,703.86 ZM 491.12 592.75 C487.97,596.84 486.20,599.09 485.21,600.11 C486.20,599.07 487.99,596.81 491.12,592.75 Z" fill="rgb(39,81,66)"/>
<path d="M 672.46 358.12 C673.95,356.69 675.56,355.30 677.29,353.95 C672.96,357.46 667.38,363.16 663.83,367.60 C665.41,365.07 665.03,364.63 662.85,364.29 C661.17,364.04 659.58,366.52 660.49,367.98 C660.76,368.41 660.35,369.30 659.58,369.94 C658.56,370.78 657.99,370.80 657.49,369.98 C657.11,369.37 657.03,368.63 657.32,368.35 C657.60,368.06 657.37,366.50 656.80,364.86 C656.23,363.23 655.52,362.15 655.22,362.45 C654.91,362.76 653.77,362.22 652.67,361.25 C651.31,360.06 651.92,361.80 654.59,366.74 C655.89,369.15 657.12,371.28 657.96,372.59 C656.69,370.71 654.44,367.09 652.00,362.96 C648.42,356.90 644.88,350.93 644.11,349.69 C642.84,347.61 642.99,347.16 645.94,344.21 C647.71,342.45 649.53,341.00 650.00,341.00 C651.48,341.00 660.65,330.06 663.40,325.01 C664.86,322.33 668.51,312.90 671.51,304.05 C676.71,288.73 678.78,283.60 682.98,277.17 C681.90,279.36 682.81,279.72 686.37,276.93 C687.95,275.68 689.00,273.86 689.00,272.37 C689.00,270.97 689.44,270.15 690.00,270.50 C690.55,270.84 691.00,270.57 691.00,269.89 C691.00,269.22 691.26,268.93 691.58,269.25 C692.36,270.03 695.36,267.43 699.57,262.32 L 703.01 258.15 L 699.93 259.68 C709.40,253.60 721.15,250.22 734.59,249.81 C734.37,249.83 734.17,249.87 733.99,249.90 C729.59,250.76 729.57,250.78 733.00,250.96 C744.60,251.54 747.96,251.94 751.97,253.25 C756.01,254.56 760.71,254.52 759.50,253.52 C764.03,255.09 769.12,257.24 775.36,260.12 C788.46,266.16 788.52,266.18 793.50,265.02 C799.35,263.65 804.66,262.44 809.56,261.34 C806.70,262.42 808.29,263.21 814.32,262.83 C819.05,262.53 821.38,261.84 823.57,260.08 L 826.50 257.73 L 824.49 258.13 C833.88,256.21 841.97,254.77 850.33,253.53 C848.80,253.99 849.03,254.43 850.25,255.12 C853.89,257.16 852.07,258.56 838.89,262.19 C837.27,262.62 835.62,263.05 834.00,263.48 C833.14,263.70 832.21,263.95 831.22,264.23 C823.28,266.33 812.12,269.72 806.00,271.90 C792.57,276.68 784.19,277.45 783.29,274.00 C782.85,272.32 781.85,271.97 777.13,271.84 C774.04,271.76 770.83,271.74 770.00,271.81 C769.17,271.88 762.14,271.23 754.36,270.36 C747.12,269.56 742.54,269.22 738.45,269.65 C733.66,270.13 729.58,271.68 722.65,274.76 C716.95,277.30 709.97,283.94 703.40,292.56 C697.70,300.03 692.30,308.98 688.30,318.01 L 688.30 318.01 C687.86,318.97 687.42,319.94 687.00,320.90 C684.10,327.54 680.32,334.67 678.61,336.75 C674.18,342.13 672.85,344.77 672.51,348.89 C672.26,351.78 672.05,353.39 671.50,354.83 C671.05,355.87 670.15,357.41 669.20,358.75 C666.10,363.13 667.54,362.85 672.46,358.12 ZM 615.35 449.88 C610.15,454.73 604.62,459.56 599.03,464.15 C593.56,468.54 586.79,473.58 572.12,484.33 C567.74,487.54 563.38,491.03 562.43,492.08 C559.98,494.78 557.93,494.49 552.17,490.61 C546.88,487.06 541.35,482.01 542.70,481.98 C543.14,481.98 542.85,481.56 542.06,481.06 C540.86,480.30 540.85,479.89 541.96,478.55 C542.69,477.67 543.48,477.15 543.72,477.39 C543.97,477.63 545.93,475.96 548.10,473.67 C551.82,469.73 552.74,467.09 550.50,466.74 C549.96,466.66 548.61,467.94 546.61,470.38 C548.04,468.55 549.48,466.76 550.93,465.00 C566.39,446.31 588.08,425.50 592.10,425.50 C593.16,425.50 595.39,424.04 597.06,422.25 C598.73,420.46 599.75,419.00 599.32,419.00 C597.49,419.00 606.58,413.66 608.82,413.42 C610.17,413.27 612.01,412.37 612.89,411.43 C613.97,410.28 614.04,409.98 613.10,410.51 C612.15,411.05 611.93,410.93 612.41,410.15 C612.80,409.51 614.49,408.28 616.16,407.42 C621.13,404.85 618.86,404.78 609.76,407.18 C616.81,405.25 622.64,403.46 624.50,402.54 C629.12,400.27 652.78,393.00 655.54,393.00 C658.86,393.00 658.64,394.57 654.41,401.00 C652.43,404.00 650.12,407.81 649.26,409.47 C647.09,413.70 640.86,422.13 634.36,429.94 C628.70,436.51 622.10,443.46 615.35,449.88 ZM 671.96 309.00 C672.66,307.08 673.88,304.02 674.68,302.22 C675.47,300.42 675.98,297.49 675.81,295.72 C675.54,293.00 674.99,293.97 672.25,302.00 C669.02,311.46 668.21,315.29 669.84,313.45 C670.30,312.93 671.25,310.92 671.96,309.00 ZM 660.11 335.34 C665.16,332.60 666.01,331.08 663.62,329.10 C662.51,328.18 661.38,328.96 658.02,332.97 C655.71,335.74 654.13,338.00 654.52,338.00 C654.91,338.00 657.43,336.80 660.11,335.34 ZM 554.00 464.11 C554.00,462.04 559.45,456.82 560.57,457.82 C560.98,458.20 561.00,457.94 560.60,457.25 C560.21,456.56 560.39,456.00 561.00,456.00 C561.61,456.00 561.84,455.55 561.50,455.00 C561.16,454.45 561.31,454.00 561.83,454.00 C562.36,454.00 563.05,453.33 563.36,452.50 C564.33,449.97 563.43,450.75 557.03,457.97 C553.63,461.80 551.14,465.41 551.49,465.99 C552.39,467.45 554.00,466.24 554.00,464.11 ZM 786.43 266.12 C787.16,264.92 781.42,262.62 779.53,263.35 C778.68,263.68 778.13,263.43 778.26,262.77 C778.39,262.14 777.60,261.46 776.50,261.28 C774.97,261.01 775.31,261.64 777.96,263.97 C781.32,266.91 785.31,267.92 786.43,266.12 ZM 870.50 252.00 C870.85,251.43 870.60,251.12 869.33,251.07 C870.76,250.90 872.22,250.74 873.71,250.57 C878.15,250.08 882.10,249.65 885.62,249.28 C879.68,249.98 876.65,250.74 876.31,251.62 C876.02,252.38 874.46,253.00 872.83,253.00 C871.12,253.00 870.14,252.58 870.50,252.00 ZM 553.07 415.69 C538.00,415.04 524.58,411.28 510.73,404.35 C509.36,403.66 507.49,402.59 505.39,401.31 C520.37,409.97 536.17,414.75 553.07,415.69 ZM 501.36 549.38 C501.21,549.73 501.06,550.08 500.91,550.43 C501.52,548.88 502.05,547.57 502.48,546.56 C507.34,535.23 512.63,524.30 518.29,513.92 L 515.72 518.80 C512.98,523.99 511.26,527.43 510.38,529.56 C507.48,535.45 504.84,541.08 502.94,545.50 C502.49,546.53 501.96,547.84 501.36,549.38 ZM 696.55 262.05 C694.82,263.45 692.82,265.26 691.10,267.02 C689.31,268.84 687.76,270.58 686.49,272.13 C689.38,268.30 692.74,264.93 696.55,262.05 ZM 681.26 351.05 C687.92,346.51 695.92,342.52 704.83,339.33 C696.48,342.38 687.75,346.72 681.26,351.05 ZM 528.66 496.13 C532.65,489.73 536.78,483.61 541.01,477.79 C537.55,482.63 533.34,488.87 528.66,496.13 ZM 495.07 394.64 C490.69,391.65 487.11,388.98 486.61,388.17 C486.87,388.60 490.63,391.47 495.07,394.64 ZM 750.88 251.08 C747.72,250.52 744.23,250.08 741.16,249.85 C744.49,250.00 747.63,250.39 750.88,251.08 ZM 607.15 407.89 C602.67,409.12 598.38,410.21 594.23,411.15 C598.48,410.14 602.96,409.01 607.15,407.89 ZM 658.98 373.95 C658.99,373.95 658.99,373.96 659.00,373.96 C659.17,373.94 659.82,373.21 660.67,372.11 C659.94,373.20 659.27,373.99 659.03,373.98 C659.02,373.98 659.00,373.97 658.98,373.95 ZM 494.94 566.67 C494.94,566.71 494.93,566.74 494.92,566.78 C493.93,569.55 492.93,572.39 491.96,575.17 C492.94,572.34 493.95,569.47 494.94,566.67 ZM 520.37 510.20 L 520.35 510.18 C520.57,509.79 520.79,509.40 521.01,509.01 C520.80,509.40 520.58,509.79 520.37,510.20 ZM 910.32 248.23 C909.87,248.67 908.98,249.00 908.17,249.00 C908.97,249.00 909.85,248.67 910.31,248.23 Z" fill="rgb(38,94,90)"/>
<path d="M 394.58 289.70 C393.46,287.05 393.60,286.08 395.55,287.88 C396.56,288.81 435.97,303.62 452.00,309.09 C457.23,310.88 461.65,312.71 461.83,313.17 C462.02,313.63 463.18,314.00 464.42,314.00 C465.65,314.00 466.91,314.25 467.21,314.55 C467.51,314.85 475.58,317.77 485.13,321.04 C494.68,324.32 503.40,327.39 504.50,327.88 C507.67,329.29 540.11,340.07 544.19,341.07 C560.10,345.00 620.86,370.64 635.83,379.75 C636.06,379.89 636.28,380.03 636.48,380.17 C636.28,380.03 636.07,379.90 635.85,379.76 C630.96,376.79 621.35,373.53 625.00,376.08 C626.99,377.47 622.54,376.27 618.95,374.45 C617.54,373.74 612.14,372.16 606.95,370.95 C601.75,369.74 596.32,368.15 594.88,367.42 C593.45,366.69 591.00,365.86 589.46,365.58 C580.82,364.01 575.00,362.73 571.00,361.52 C568.53,360.76 561.78,359.44 556.00,358.57 C550.22,357.69 540.55,356.08 534.50,354.97 C528.45,353.87 519.22,352.34 514.00,351.58 C504.42,350.18 489.49,346.36 482.96,343.63 C481.02,342.82 475.71,341.20 471.17,340.04 C463.01,337.96 456.31,335.20 448.50,330.71 C446.30,329.44 440.45,326.23 435.50,323.56 C430.55,320.90 423.46,316.71 419.75,314.24 C414.17,310.54 412.74,309.97 411.50,311.00 C409.22,312.89 409.56,313.74 415.48,320.98 C415.52,321.03 415.56,321.07 415.60,321.12 C411.80,316.62 408.20,311.90 404.82,307.00 C403.07,304.47 401.45,301.98 400.02,299.67 C397.54,295.71 395.56,292.06 394.58,289.70 ZM 477.41 681.91 C476.31,683.40 475.20,684.87 474.08,686.31 C473.86,686.52 473.64,686.71 473.43,686.88 L 470.81 688.94 L 466.90 685.80 C464.76,684.08 463.00,681.99 463.00,681.17 C463.00,680.34 462.79,679.87 462.54,680.12 C462.26,680.40 458.53,694.29 456.42,702.58 C458.68,693.47 463.20,675.92 466.92,661.80 C466.80,662.39 466.68,662.95 466.57,663.50 C466.01,666.39 466.03,666.42 467.29,664.22 L 468.61 661.93 L 472.05 664.44 C473.95,665.82 477.22,668.10 479.31,669.52 L 483.12 672.10 L 481.07 675.30 C479.94,677.06 478.35,679.92 477.53,681.66 C477.49,681.74 477.45,681.82 477.41,681.91 ZM 671.62 466.00 C671.09,466.00 669.82,466.76 668.79,467.69 C667.02,469.29 666.95,469.29 667.63,467.53 C668.12,466.24 667.98,465.89 667.17,466.39 C666.53,466.79 666.00,466.74 666.00,466.29 C666.00,465.83 664.42,464.61 662.50,463.57 C660.58,462.53 659.00,461.32 659.00,460.88 C659.00,459.54 662.32,453.00 663.00,453.00 C663.34,453.00 664.66,453.97 665.93,455.15 C667.79,456.88 668.75,457.12 670.86,456.38 C672.30,455.87 673.65,454.60 673.85,453.55 C674.40,450.67 676.12,449.48 680.15,449.16 C686.43,448.65 686.00,450.09 676.54,461.30 C674.36,463.89 672.14,466.00 671.62,466.00 ZM 648.00 485.65 C639.44,491.33 636.16,493.06 635.61,492.18 C635.31,491.69 636.22,490.21 637.64,488.90 C639.06,487.58 643.36,482.58 647.20,477.79 C654.06,469.22 654.22,469.10 656.55,470.62 C657.85,471.48 659.38,471.89 659.94,471.53 C660.59,471.14 660.73,471.58 660.32,472.70 C659.69,474.43 659.75,474.42 661.73,472.68 C662.94,471.63 664.05,471.28 664.40,471.85 C665.01,472.83 656.39,480.08 648.00,485.65 ZM 407.85 308.84 C407.13,307.55 406.46,305.83 406.36,305.00 C406.26,304.17 405.87,302.13 405.51,300.46 C404.94,297.88 405.22,297.22 407.38,296.06 C408.79,295.31 409.74,294.38 409.50,293.99 C409.26,293.61 406.24,292.28 402.78,291.03 C399.33,289.79 396.07,288.38 395.55,287.89 C393.62,286.09 393.51,287.12 394.58,289.70 C395.55,292.00 397.48,295.56 400.02,299.67 C401.36,301.80 402.84,304.01 404.40,306.15 C408.51,311.82 410.31,313.22 407.85,308.84 ZM 669.53 445.91 C668.79,448.23 666.10,449.44 665.47,447.73 C664.81,445.97 666.40,440.70 667.72,440.26 C669.15,439.78 670.32,443.43 669.53,445.91 ZM 550.64 465.36 C560.49,453.23 571.10,442.13 582.50,432.06 C587.28,427.83 593.33,423.01 599.16,418.70 C599.02,418.89 599.06,419.00 599.32,419.00 C599.75,419.00 598.73,420.46 597.06,422.25 C595.39,424.04 593.16,425.50 592.10,425.50 C588.08,425.50 566.39,446.31 550.93,465.00 C550.84,465.12 550.74,465.24 550.64,465.36 ZM 601.93 416.67 C607.57,412.59 612.75,409.18 616.06,407.47 C614.42,408.33 612.80,409.52 612.41,410.15 C611.93,410.93 612.15,411.05 613.10,410.51 C614.04,409.98 613.97,410.28 612.89,411.43 C612.01,412.37 610.17,413.27 608.82,413.42 C607.60,413.55 604.34,415.20 601.93,416.67 ZM 471.62 644.33 C471.81,643.63 471.98,643.02 472.13,642.50 C476.23,628.37 481.58,615.00 483.15,615.00 C481.61,615.00 476.04,629.84 471.62,644.33 ZM 411.00 313.50 C411.00,312.67 411.18,312.00 411.39,312.00 C411.61,312.00 412.05,312.67 412.36,313.50 C412.68,314.33 412.50,315.00 411.97,315.00 C411.44,315.00 411.00,314.33 411.00,313.50 ZM 453.95 355.04 C459.47,358.41 465.73,361.79 471.62,364.62 C469.03,363.42 466.47,362.17 464.13,360.94 C460.70,359.14 457.30,357.17 453.95,355.04 ZM 420.41 326.60 C425.13,331.70 430.86,337.23 436.37,342.03 C430.81,337.30 425.46,332.14 420.41,326.60 ZM 455.81 708.99 C455.83,708.99 455.85,708.99 455.87,708.99 C455.28,709.10 455.00,708.99 455.00,708.69 C455.00,708.68 455.00,708.67 455.00,708.66 C455.03,708.95 455.28,709.06 455.81,708.99 ZM 616.06 407.47 C618.80,406.05 619.41,405.38 617.94,405.44 C619.41,405.37 618.84,406.03 616.16,407.42 C616.12,407.44 616.09,407.45 616.06,407.47 Z" fill="rgb(62,103,80)"/>
<path d="M 656.38 334.71 C653.50,338.16 650.75,341.00 650.00,341.00 C649.53,341.00 647.71,342.45 645.94,344.21 C642.99,347.16 642.84,347.61 644.11,349.69 C644.52,350.36 645.74,352.40 647.34,355.09 C632.99,332.47 615.78,312.83 590.91,290.43 L 578.32 279.09 L 576.17 271.79 C573.34,262.12 571.35,252.14 570.49,243.15 C569.71,235.14 570.66,218.17 572.00,216.01 C572.61,215.01 574.83,216.78 580.51,222.81 C607.73,251.75 631.67,291.84 646.00,332.47 C647.54,336.85 649.25,340.58 649.78,340.76 C650.53,341.01 653.38,338.23 656.38,334.71 ZM 641.36 371.84 C642.68,373.30 642.75,373.95 641.74,375.27 C640.60,376.77 640.29,376.75 637.89,374.97 C634.02,372.11 609.33,360.06 595.00,354.05 C581.12,348.22 579.88,347.48 580.66,345.44 C581.41,343.48 577.66,342.24 570.98,342.25 C564.36,342.25 552.47,337.66 546.63,332.85 C543.42,330.20 543.06,329.55 544.40,328.80 C545.28,328.30 546.00,327.53 546.00,327.09 C546.00,325.71 538.18,320.77 537.08,321.45 C535.28,322.56 532.34,320.23 527.58,313.89 C524.42,309.69 523.27,307.39 523.92,306.59 C525.26,304.98 523.59,302.53 521.86,303.56 C520.79,304.21 520.74,304.07 521.63,302.94 C523.86,300.08 522.56,296.66 518.42,294.53 C515.65,293.09 513.80,291.10 512.12,287.71 C510.82,285.07 510.03,282.64 510.38,282.29 C511.17,281.49 521.00,286.04 521.00,287.20 C521.00,287.68 522.46,289.51 524.25,291.28 C527.46,294.46 538.03,298.82 540.93,298.16 C543.43,297.58 556.99,305.29 557.60,307.64 C558.66,311.69 564.35,315.16 572.00,316.43 C576.30,317.14 586.60,323.94 586.48,326.00 C586.23,330.29 592.05,334.79 599.85,336.33 C604.96,337.34 620.36,350.33 619.64,353.02 C619.18,354.72 624.01,359.28 626.56,359.56 C628.17,359.73 630.29,360.87 631.27,362.09 C633.01,364.23 633.00,364.38 630.98,366.52 C629.12,368.50 629.07,368.81 630.54,369.38 C631.44,369.72 632.66,369.71 633.24,369.35 C633.86,368.97 634.02,369.16 633.62,369.80 C633.15,370.57 634.00,370.78 636.33,370.48 C638.74,370.17 640.21,370.57 641.36,371.84 ZM 671.62 466.00 C671.75,466.00 671.98,465.87 672.29,465.64 C667.57,470.49 662.31,475.11 656.47,479.54 C661.28,475.78 664.80,472.48 664.40,471.85 C664.05,471.28 662.94,471.63 661.73,472.68 C659.75,474.42 659.69,474.43 660.32,472.70 C660.73,471.58 660.59,471.14 659.94,471.53 C659.38,471.89 657.85,471.48 656.55,470.62 C654.37,469.19 654.09,469.21 648.39,476.30 C657.10,464.66 663.70,451.45 667.17,438.50 C669.94,428.18 670.60,412.13 668.61,403.69 C666.58,395.11 666.60,394.08 668.75,393.32 C669.71,392.98 671.66,391.64 673.07,390.33 C674.75,388.79 677.84,387.58 681.91,386.86 C687.72,385.84 688.39,385.91 691.12,387.93 C692.73,389.12 695.28,390.27 696.78,390.47 C703.87,391.41 704.71,394.27 702.01,408.13 C698.81,424.51 692.89,438.85 683.92,451.64 C685.13,449.21 683.73,448.87 680.15,449.16 C676.12,449.48 674.40,450.67 673.85,453.55 C673.65,454.60 672.30,455.87 670.86,456.38 C668.75,457.12 667.79,456.88 665.93,455.15 C664.66,453.97 663.34,453.00 663.00,453.00 C662.32,453.00 659.00,459.54 659.00,460.88 C659.00,461.32 660.58,462.53 662.50,463.57 C664.42,464.61 666.00,465.83 666.00,466.29 C666.00,466.74 666.53,466.79 667.17,466.39 C667.98,465.89 668.12,466.24 667.63,467.53 C666.95,469.29 667.02,469.29 668.79,467.69 C669.82,466.76 671.09,466.00 671.62,466.00 ZM 670.00 377.90 C670.00,378.31 668.71,380.08 667.14,381.84 C664.71,384.57 664.10,384.83 663.07,383.59 C661.77,382.02 662.60,379.65 665.90,375.47 C667.72,373.16 671.48,373.32 670.57,375.67 C670.26,376.49 670.00,377.50 670.00,377.90 ZM 669.53 445.91 C670.32,443.43 669.15,439.78 667.72,440.26 C666.40,440.70 664.81,445.97 665.47,447.73 C666.10,449.44 668.79,448.23 669.53,445.91 ZM 639.73 490.87 C637.59,492.10 636.33,492.60 635.94,492.38 C636.50,492.48 637.69,492.02 639.73,490.87 ZM 639.01 487.48 C639.58,486.82 640.23,486.09 640.95,485.29 C640.23,486.13 639.57,486.87 639.01,487.48 ZM 658.10 372.82 C657.91,372.53 657.69,372.19 657.44,371.81 C657.63,372.10 657.80,372.36 657.96,372.59 C658.01,372.67 658.06,372.74 658.10,372.82 Z" fill="rgb(110,148,104)"/>
<path d="M 670.00 377.90 C670.00,377.50 670.26,376.49 670.57,375.67 C671.48,373.32 667.72,373.16 665.90,375.47 C664.99,376.62 664.27,377.63 663.73,378.53 L 665.27 375.64 C668.37,369.83 680.07,358.07 686.86,353.94 C690.44,351.76 708.43,344.00 709.90,344.00 C710.45,344.00 709.83,345.16 708.51,346.58 C706.06,349.23 706.10,350.55 708.76,354.70 C709.88,356.46 709.95,357.96 709.10,362.20 C708.52,365.11 706.69,376.96 705.03,388.52 C704.45,392.59 703.89,396.30 703.32,399.72 C703.91,392.97 702.11,391.18 696.78,390.47 C695.28,390.27 692.73,389.12 691.12,387.93 C688.39,385.91 687.72,385.84 681.91,386.86 C677.84,387.58 674.75,388.79 673.07,390.33 C671.66,391.64 669.71,392.98 668.75,393.32 C667.11,393.90 666.71,394.63 667.50,398.71 C667.04,397.08 666.48,395.23 665.77,393.00 L 662.15 381.51 L 663.03 379.86 C662.28,381.50 662.32,382.68 663.07,383.59 C664.10,384.83 664.71,384.57 667.14,381.84 C668.71,380.08 670.00,378.31 670.00,377.90 ZM 641.36 371.84 C640.21,370.57 638.74,370.17 636.33,370.48 C634.00,370.78 633.15,370.57 633.62,369.80 C634.02,369.16 633.86,368.97 633.24,369.35 C632.66,369.71 631.44,369.72 630.54,369.38 C629.07,368.81 629.12,368.50 630.98,366.52 C633.00,364.38 633.01,364.23 631.27,362.09 C630.29,360.87 628.17,359.73 626.56,359.56 C624.01,359.28 619.18,354.72 619.64,353.02 C619.87,352.16 618.45,350.24 616.24,347.99 C625.87,356.13 635.02,364.43 642.37,371.85 C646.70,376.21 650.07,380.20 649.87,380.72 C649.67,381.23 646.58,379.93 643.00,377.82 C642.17,377.34 641.33,376.85 640.46,376.35 C640.89,376.31 641.24,375.94 641.74,375.27 C642.75,373.95 642.68,373.30 641.36,371.84 ZM 546.55 299.99 C544.01,298.76 541.80,297.96 540.93,298.16 C538.03,298.82 527.46,294.46 524.25,291.28 C522.46,289.51 521.00,287.68 521.00,287.20 C521.00,286.10 512.14,281.94 510.56,282.21 C510.66,282.07 510.81,282.00 511.00,282.00 C512.95,282.00 529.78,290.67 546.55,299.99 ZM 605.63 339.27 C603.31,337.72 601.21,336.60 599.85,336.33 C592.05,334.79 586.23,330.29 586.48,326.00 C586.52,325.17 584.88,323.57 582.62,321.91 C589.86,326.98 597.75,332.95 605.63,339.27 ZM 510.45 283.52 C510.72,284.55 511.32,286.09 512.12,287.71 C513.80,291.10 515.65,293.09 518.42,294.53 C522.56,296.66 523.86,300.08 521.63,302.94 C520.74,304.07 520.79,304.21 521.86,303.56 C523.59,302.53 525.26,304.98 523.92,306.59 C523.47,307.14 523.88,308.41 525.22,310.53 C524.09,309.04 523.07,307.60 522.19,306.25 C515.64,296.22 510.98,287.04 510.45,283.52 ZM 580.90 320.71 C577.80,318.66 574.15,316.78 572.00,316.43 C564.35,315.16 558.66,311.69 557.60,307.64 C557.37,306.76 555.31,305.11 552.69,303.44 C559.60,307.35 566.17,311.19 571.32,314.40 C574.31,316.25 577.52,318.38 580.90,320.71 ZM 559.92 339.87 C563.99,341.33 568.01,342.25 570.98,342.25 C577.66,342.24 581.41,343.48 580.66,345.44 C579.88,347.48 581.12,348.22 595.00,354.05 C608.82,359.84 632.29,371.26 637.40,374.63 C618.94,364.42 592.25,352.30 566.07,342.33 C564.04,341.56 561.93,340.71 559.92,339.87 ZM 533.92 320.83 C535.24,321.76 536.27,321.95 537.08,321.45 C538.18,320.77 546.00,325.71 546.00,327.09 C546.00,327.53 545.28,328.30 544.40,328.80 C543.06,329.55 543.42,330.20 546.63,332.85 C547.94,333.93 549.56,335.00 551.35,336.01 C550.93,335.79 550.56,335.59 550.27,335.42 C546.22,333.04 539.87,327.24 533.92,320.83 ZM 669.11 427.76 C669.37,424.73 669.47,421.27 669.45,417.00 C669.43,411.58 669.35,408.29 668.93,405.22 C670.00,411.11 670.02,419.77 669.11,427.76 ZM 647.92 476.89 C654.61,468.04 660.14,458.17 663.98,448.28 C660.25,457.99 654.91,467.59 648.39,476.30 C648.24,476.49 648.08,476.69 647.92,476.89 ZM 665.47 472.16 C661.13,476.06 656.48,479.76 651.60,483.17 C653.30,481.96 654.95,480.73 656.47,479.54 L 656.47 479.54 C659.64,477.14 662.64,474.68 665.47,472.16 ZM 697.83 424.02 C696.65,427.66 695.32,431.03 693.76,434.39 C695.28,431.03 696.63,427.58 697.83,424.02 ZM 639.01 487.48 C638.95,487.54 638.90,487.60 638.84,487.66 C639.49,486.90 640.25,486.06 641.10,485.12 L 641.15 485.07 C641.08,485.14 641.02,485.22 640.95,485.29 C640.23,486.09 639.58,486.82 639.01,487.48 ZM 636.11 492.43 C636.00,492.43 635.92,492.41 635.86,492.36 C635.88,492.37 635.91,492.38 635.94,492.38 C635.98,492.41 636.04,492.42 636.11,492.43 Z" fill="rgb(129,156,122)"/>
<path d="M 703.28 400.22 C703.29,400.05 703.31,399.89 703.32,399.72 C703.89,396.30 704.45,392.59 705.03,388.52 C706.69,376.96 708.52,365.11 709.10,362.20 C709.95,357.96 709.88,356.46 708.76,354.70 C706.10,350.55 706.06,349.23 708.51,346.58 C709.83,345.16 710.45,344.00 709.90,344.00 C709.13,344.00 703.73,346.17 698.29,348.53 C705.56,345.34 713.45,342.12 713.74,342.40 C713.95,342.61 712.96,347.03 711.55,352.21 C710.14,357.40 707.43,372.31 705.53,385.34 C704.69,391.16 703.95,396.04 703.28,400.22 ZM 665.47 472.16 C667.86,470.03 670.13,467.86 672.29,465.64 C672.44,465.53 672.61,465.39 672.80,465.23 C669.04,469.14 664.91,472.90 660.31,476.58 C662.07,475.14 663.80,473.66 665.47,472.16 ZM 697.67 424.53 C697.72,424.36 697.78,424.19 697.83,424.02 C698.80,421.13 699.67,418.18 700.44,415.15 C699.60,418.67 698.72,421.61 697.67,424.53 Z" fill="rgb(150,168,145)"/>
<path d="M 598.68 546.05 C582.63,548.41 574.55,548.61 575.31,546.63 C575.60,545.87 576.77,542.13 577.91,538.31 C579.08,534.38 580.95,530.50 582.24,529.36 C584.88,527.01 594.35,521.00 595.40,521.00 C595.79,521.00 598.18,519.42 600.70,517.50 C603.22,515.58 605.80,514.00 606.42,514.00 C608.43,514.00 642.56,496.37 649.13,491.94 C660.29,484.42 670.36,476.42 675.03,471.39 C688.41,456.94 697.92,441.80 703.09,426.70 C704.99,421.15 705.56,420.28 706.18,421.97 C707.07,424.35 706.48,439.52 705.03,452.00 C703.47,465.40 703.22,471.02 704.14,471.59 C704.61,471.88 705.00,471.68 705.00,471.15 C705.00,470.04 708.88,470.81 710.77,472.29 C711.47,472.84 712.32,473.01 712.66,472.68 C712.99,472.34 714.03,472.48 714.97,472.98 C716.85,473.99 716.88,475.96 715.11,480.50 C714.47,482.15 713.74,484.06 713.50,484.75 C713.26,485.44 712.17,486.00 711.09,486.00 C710.00,486.00 708.42,486.99 707.58,488.19 C706.74,489.39 705.75,490.08 705.38,489.71 C705.01,489.35 705.23,488.43 705.85,487.68 C706.47,486.93 706.80,486.13 706.59,485.91 C706.37,485.68 705.95,484.00 705.67,482.16 C705.06,478.25 704.55,477.54 703.02,478.49 C702.21,478.99 702.20,479.54 703.00,480.50 C703.80,481.47 703.77,482.02 702.89,482.57 C702.06,483.08 701.95,482.88 702.54,481.90 C703.26,480.71 703.13,480.71 701.64,481.91 C700.50,482.84 700.28,483.55 700.99,483.99 C702.36,484.84 700.89,489.02 698.54,490.97 C697.03,492.22 696.94,492.07 697.55,489.42 C698.12,486.95 697.74,487.24 695.11,491.28 C691.27,497.19 691.24,498.00 694.91,498.00 C699.16,498.00 697.99,500.86 691.40,506.54 C688.43,509.10 686.30,511.67 686.66,512.25 C687.05,512.89 686.83,513.01 686.09,512.56 C685.42,512.14 684.11,512.47 683.19,513.28 C682.26,514.10 680.50,515.07 679.27,515.44 C676.26,516.36 668.73,522.74 670.11,523.20 C671.98,523.83 656.18,531.01 644.02,535.07 C627.97,540.42 614.08,543.79 598.68,546.05 ZM 556.64 260.49 C556.32,261.32 555.71,261.99 555.28,261.97 C554.39,261.94 538.60,251.77 532.34,247.20 C527.35,243.56 525.75,242.71 502.00,231.07 C491.83,226.08 482.83,221.61 482.00,221.12 C481.17,220.64 477.59,219.27 474.04,218.09 C470.49,216.90 466.73,215.16 465.68,214.22 C463.43,212.18 454.20,193.13 451.14,184.23 C449.95,180.77 448.54,174.80 447.99,170.96 C447.45,167.11 446.56,162.06 446.01,159.73 C445.47,157.40 444.72,150.83 444.35,145.13 C443.71,135.13 443.75,134.80 445.59,135.79 C448.03,137.10 451.08,140.44 454.47,145.50 C456.95,149.21 469.99,164.00 488.00,183.54 C507.30,204.48 531.57,230.50 542.20,241.65 C555.19,255.27 557.49,258.28 556.64,260.49 ZM 573.16 621.75 C569.30,625.92 565.00,626.16 565.00,622.19 C565.00,619.88 561.83,618.02 559.76,619.13 C558.65,619.72 557.33,619.71 556.17,619.09 C551.74,616.72 551.77,615.85 556.76,603.40 C559.38,596.85 562.27,590.38 563.19,589.00 C564.10,587.62 565.15,584.25 565.51,581.50 C566.31,575.56 571.64,556.96 572.91,555.69 C573.40,555.20 578.23,554.43 583.65,553.98 C589.07,553.53 596.74,552.83 600.69,552.44 L 607.89 551.72 L 607.47 555.03 C606.98,558.91 601.82,576.13 598.79,584.00 C594.72,594.55 591.22,600.45 587.57,602.88 C585.27,604.41 583.96,606.10 583.88,607.63 C583.73,610.35 583.61,610.85 582.56,613.24 C582.14,614.20 581.47,614.79 581.07,614.54 C580.37,614.11 579.51,614.90 573.16,621.75 Z" fill="rgb(228,129,36)"/>
<path d="M 525.37 325.72 C524.41,326.42 522.92,326.97 522.06,326.94 C518.75,326.82 504.28,321.39 501.58,319.25 C500.01,318.01 497.99,317.00 497.09,317.00 C496.18,317.00 494.43,316.29 493.20,315.43 C491.94,314.54 489.31,313.94 487.22,314.06 C485.18,314.17 482.60,313.92 481.50,313.49 C434.97,295.44 412.82,283.49 392.90,265.70 C377.97,252.38 369.46,242.77 360.54,229.17 C352.60,217.06 342.00,196.20 342.00,192.67 C342.00,189.63 344.97,190.93 351.34,196.75 C354.80,199.91 360.35,204.43 363.66,206.78 C366.97,209.13 370.54,211.85 371.59,212.82 C378.78,219.46 443.99,254.75 456.00,258.50 C457.38,258.93 461.65,260.74 465.50,262.52 C469.35,264.30 477.67,267.89 484.00,270.50 C490.33,273.10 496.62,275.80 498.00,276.48 C501.96,278.45 509.07,293.85 509.85,302.13 C509.93,303.02 513.40,307.22 517.56,311.46 C526.17,320.24 528.08,323.74 525.37,325.72 ZM 553.33 616.89 C553.27,616.83 553.22,616.76 553.16,616.69 C552.23,615.58 552.92,612.87 556.42,603.89 C558.87,597.63 563.17,585.08 566.00,576.00 C568.68,567.38 570.21,562.32 571.37,559.32 C569.29,565.34 566.12,577.02 565.51,581.50 C565.15,584.25 564.10,587.62 563.19,589.00 C562.27,590.38 559.38,596.85 556.76,603.40 C553.34,611.94 552.25,615.03 553.33,616.89 ZM 573.79 555.34 C573.90,555.27 574.02,555.21 574.13,555.16 C574.91,554.80 575.84,554.80 577.20,554.65 C585.10,553.74 600.09,552.33 604.60,552.05 L 600.69 552.44 C596.74,552.83 589.07,553.53 583.65,553.98 C579.40,554.33 575.51,554.88 573.79,555.34 ZM 607.38 555.64 C607.02,558.09 605.91,562.07 603.98,568.41 C603.42,570.25 602.87,572.01 602.33,573.68 C604.61,566.54 606.82,558.75 607.38,555.64 ZM 596.68 589.16 C593.52,596.52 590.58,600.87 587.57,602.88 C590.57,600.88 593.48,596.53 596.68,589.16 ZM 555.92 618.95 C555.71,618.85 555.51,618.74 555.30,618.61 C555.50,618.72 555.70,618.84 555.92,618.95 Z" fill="rgb(240,132,93)"/>
<path d="M 546.55 299.99 C529.78,290.67 512.95,282.00 511.00,282.00 C510.81,282.00 510.66,282.07 510.56,282.21 C510.48,282.22 510.42,282.25 510.38,282.29 C510.24,282.42 510.28,282.87 510.45,283.52 C510.90,286.51 514.34,293.60 519.38,301.83 C513.38,292.19 508.51,281.64 505.22,270.94 C502.65,262.57 499.78,245.27 500.18,240.59 L 500.50 236.93 L 517.00 246.10 C541.40,259.68 563.00,274.25 580.48,288.95 C592.44,299.00 613.92,320.45 622.60,331.00 C634.27,345.19 650.32,369.64 654.44,379.51 C655.23,381.40 655.55,383.16 655.15,383.41 C654.46,383.83 645.20,379.39 640.05,376.31 C640.20,376.35 640.33,376.36 640.46,376.35 C641.33,376.85 642.17,377.34 643.00,377.82 C646.58,379.93 649.67,381.23 649.87,380.72 C650.07,380.20 646.70,376.21 642.37,371.85 C635.02,364.43 625.87,356.13 616.24,347.99 C613.39,345.10 609.23,341.67 605.63,339.27 C597.75,332.95 589.86,326.99 582.62,321.91 L 582.62 321.91 C582.08,321.51 581.50,321.11 580.90,320.71 C577.52,318.38 574.31,316.25 571.32,314.40 C566.17,311.19 559.60,307.35 552.69,303.44 C550.77,302.21 548.56,300.97 546.55,299.99 ZM 626.41 352.01 C636.37,360.14 639.00,361.59 639.00,358.95 C639.00,358.44 636.75,355.54 634.00,352.50 C630.88,349.06 629.00,346.06 629.00,344.54 C629.00,342.99 627.28,340.36 624.25,337.25 C615.07,327.86 607.32,319.48 605.92,317.44 C604.50,315.39 583.81,295.44 574.44,287.11 C571.72,284.69 567.92,282.06 566.00,281.26 C562.52,279.81 553.78,273.66 549.00,269.29 C542.73,263.57 540.26,261.71 537.02,260.30 C535.11,259.47 531.73,257.56 529.52,256.06 C527.31,254.57 523.50,252.56 521.06,251.60 C518.61,250.65 515.46,249.05 514.06,248.07 C510.85,245.81 504.25,243.42 503.45,244.22 C502.69,244.98 506.50,265.78 508.68,272.74 C510.37,278.14 512.40,280.17 517.38,281.39 C518.96,281.78 524.81,284.68 530.38,287.83 C535.94,290.98 542.08,294.19 544.00,294.96 C545.92,295.72 548.69,297.17 550.15,298.17 C551.61,299.18 553.17,300.00 553.61,300.00 C554.74,300.00 575.79,312.81 580.00,316.06 C581.92,317.54 586.65,320.90 590.50,323.52 C594.35,326.14 599.08,329.58 601.00,331.17 C610.56,339.04 616.42,343.85 626.41,352.01 ZM 525.37 325.72 C528.08,323.74 526.17,320.24 517.56,311.46 C513.40,307.22 509.93,303.02 509.85,302.13 C509.12,294.33 502.76,280.20 498.71,276.95 C499.33,276.96 497.23,271.92 495.84,270.12 C494.59,268.50 494.00,266.05 494.00,262.49 C494.00,259.61 493.33,255.34 492.50,253.00 C491.67,250.66 491.00,246.99 491.00,244.84 C491.00,238.92 488.65,234.20 485.32,233.39 C483.77,233.02 480.70,231.91 478.50,230.94 C476.30,229.96 473.39,228.84 472.02,228.44 C470.66,228.05 467.50,226.32 464.99,224.61 C462.49,222.90 456.40,220.22 451.47,218.66 C446.54,217.10 440.48,215.15 438.00,214.34 C435.52,213.52 431.92,212.51 429.99,212.10 C428.05,211.69 425.22,210.54 423.69,209.54 C422.17,208.54 419.25,207.37 417.21,206.95 C415.17,206.53 411.25,205.53 408.50,204.73 C405.75,203.93 401.25,202.71 398.50,202.02 C395.75,201.33 390.80,199.95 387.50,198.96 C384.20,197.96 377.23,196.62 372.00,195.97 C366.77,195.33 361.38,194.23 360.00,193.53 C358.62,192.83 354.67,191.95 351.22,191.58 L 344.94 190.89 L 351.29 196.70 C354.78,199.89 360.34,204.42 363.66,206.78 C360.34,204.42 354.80,199.91 351.34,196.75 C344.97,190.93 342.00,189.63 342.00,192.67 C342.00,193.65 342.82,195.96 344.16,199.05 C343.79,198.25 343.44,197.50 343.13,196.84 C338.74,187.50 338.88,186.73 344.75,187.51 C356.55,189.07 386.91,195.33 395.50,197.96 C398.80,198.98 406.67,201.24 412.99,203.00 C424.68,206.26 458.43,218.02 467.50,222.01 C475.68,225.61 489.39,231.93 490.98,232.84 C492.87,233.93 493.77,237.21 493.91,243.50 C493.97,246.25 495.14,253.00 496.51,258.50 C497.88,264.00 499.00,269.32 499.00,270.33 C499.00,273.81 505.44,288.60 513.00,302.50 C516.24,308.46 527.29,323.33 530.38,325.90 C531.27,326.64 532.00,327.86 532.00,328.62 C532.00,330.42 528.41,330.32 524.00,328.40 C522.08,327.56 512.40,324.19 502.50,320.92 C492.60,317.64 483.60,314.54 482.50,314.03 C481.94,313.77 479.66,312.82 476.43,311.51 C478.09,312.16 479.78,312.82 481.50,313.49 C482.60,313.92 485.18,314.17 487.22,314.06 C489.31,313.94 491.94,314.54 493.20,315.43 C494.43,316.29 496.18,317.00 497.09,317.00 C497.99,317.00 500.01,318.01 501.58,319.25 C504.28,321.39 518.75,326.82 522.06,326.94 C522.92,326.97 524.41,326.42 525.37,325.72 ZM 781.30 287.18 C783.12,287.40 784.86,287.66 786.17,287.93 L 791.62 289.06 L 799.38 285.20 C792.04,288.96 789.30,291.06 784.49,296.15 C780.98,299.87 776.29,306.20 774.07,310.21 C769.88,317.76 768.45,318.96 772.05,311.90 C775.75,304.65 780.99,297.08 783.07,295.96 C785.88,294.46 785.23,290.78 782.00,289.89 C779.77,289.27 779.88,289.19 783.00,289.07 C787.76,288.89 785.84,287.82 781.30,287.18 ZM 569.45 270.85 C570.37,273.73 569.27,273.53 564.50,269.92 C559.00,265.76 558.01,264.63 560.55,265.39 C561.68,265.73 563.41,265.42 564.40,264.70 C566.00,263.53 566.06,262.93 564.96,259.27 C564.28,257.00 564.06,254.33 564.47,253.33 C564.98,252.07 565.76,254.17 566.99,260.10 C567.97,264.83 569.08,269.66 569.45,270.85 ZM 561.88 204.34 L 566.26 208.84 L 564.29 226.50 L 564.00 208.21 L 554.75 198.87 C547.89,191.94 547.05,190.86 551.50,194.68 C554.80,197.52 559.47,201.86 561.88,204.34 ZM 735.56 319.00 C734.54,320.92 732.11,323.85 730.15,325.50 L 726.60 328.50 L 729.75 324.00 C731.48,321.52 734.39,317.90 736.20,315.95 C738.02,313.99 739.03,313.09 738.45,313.95 C737.87,314.80 736.57,317.08 735.56,319.00 ZM 719.05 352.37 C717.87,357.48 715.47,360.00 716.52,355.04 C716.92,353.13 717.84,349.98 718.56,348.04 C720.10,343.85 720.41,346.54 719.05,352.37 ZM 473.13 143.87 C477.73,146.05 480.77,147.87 479.87,147.91 C478.19,148.00 463.79,140.88 464.41,140.26 C464.60,140.07 468.52,141.69 473.13,143.87 ZM 528.39 660.87 C524.49,662.64 523.88,661.92 526.38,658.50 C527.63,656.79 527.90,656.76 529.32,658.17 C530.73,659.59 530.64,659.84 528.39,660.87 ZM 346.97 205.05 C350.76,212.76 356.07,222.35 360.54,229.17 C360.65,229.34 360.77,229.51 360.88,229.69 C356.12,222.65 351.83,215.51 349.50,210.50 C348.78,208.95 347.89,207.03 346.97,205.05 ZM 427.18 289.48 C437.39,294.98 449.40,300.51 464.34,306.65 C450.03,300.92 437.93,295.38 427.18,289.48 ZM 369.14 241.17 C375.50,249.23 382.67,256.57 392.80,265.62 C387.20,260.75 381.74,255.45 376.19,249.59 C374.11,247.39 371.68,244.47 369.14,241.17 ZM 602.54 357.45 C590.56,352.14 577.44,346.66 566.07,342.33 C578.42,347.04 590.88,352.22 602.54,357.45 ZM 533.92 320.83 C535.29,322.30 536.67,323.74 538.04,325.11 C537.73,324.80 537.41,324.49 537.09,324.18 C535.93,323.03 534.79,321.86 533.67,320.64 C533.76,320.71 533.84,320.77 533.92,320.83 ZM 835.65 270.15 L 835.79 270.10 C824.79,274.10 812.70,278.91 805.11,282.40 C812.46,279.00 824.58,274.17 835.65,270.15 ZM 769.82 286.87 C771.23,286.64 772.69,286.61 774.62,286.65 C775.40,286.67 776.28,286.72 777.21,286.78 C776.74,286.76 776.27,286.74 775.79,286.72 C773.19,286.64 771.43,286.63 769.82,286.87 ZM 559.92 339.87 C561.93,340.71 564.04,341.56 566.07,342.33 C563.41,341.32 561.10,340.42 559.06,339.56 C559.35,339.67 559.63,339.77 559.92,339.87 ZM 492.89 274.23 C490.35,273.14 487.18,271.81 484.00,270.50 C480.09,268.89 475.43,266.90 471.52,265.20 C475.43,266.90 480.09,268.88 484.00,270.50 C487.31,271.86 490.50,273.20 492.89,274.23 Z" fill="rgb(228,167,123)"/>
<path d="M 735.56 319.00 C736.57,317.08 737.87,314.80 738.45,313.95 C738.69,313.59 738.66,313.54 738.40,313.75 C738.88,313.27 739.38,312.78 739.90,312.27 C749.54,302.87 769.68,291.79 780.60,289.44 C780.82,289.55 781.29,289.69 782.00,289.89 C785.23,290.78 785.88,294.46 783.07,295.96 C780.99,297.08 775.75,304.65 772.05,311.90 C768.45,318.96 769.88,317.76 774.07,310.21 C775.47,307.68 777.85,304.23 780.30,301.10 C774.23,308.95 768.96,319.19 764.93,331.00 C763.15,336.23 761.31,340.93 760.85,341.45 C760.38,341.97 760.00,343.61 760.00,345.10 C760.00,346.58 758.90,352.98 757.56,359.32 C756.22,365.65 753.73,380.66 752.02,392.66 C745.27,440.24 735.68,464.75 714.00,489.80 C706.78,498.14 691.83,510.93 681.86,517.31 C677.43,520.15 672.56,522.86 667.34,525.42 C669.55,524.23 670.70,523.40 670.11,523.20 C668.73,522.74 676.26,516.36 679.27,515.44 C680.50,515.07 682.26,514.10 683.19,513.28 C684.11,512.47 685.42,512.14 686.09,512.56 C686.83,513.01 687.05,512.89 686.66,512.25 C686.30,511.67 688.43,509.10 691.40,506.54 C697.99,500.86 699.16,498.00 694.91,498.00 C691.24,498.00 691.27,497.19 695.11,491.28 C697.74,487.24 698.12,486.95 697.55,489.42 C696.94,492.07 697.03,492.22 698.54,490.97 C700.89,489.02 702.36,484.84 700.99,483.99 C700.28,483.55 700.50,482.84 701.64,481.91 C703.13,480.71 703.26,480.71 702.54,481.90 C701.95,482.88 702.06,483.08 702.89,482.57 C703.77,482.02 703.80,481.47 703.00,480.50 C702.20,479.54 702.21,478.99 703.02,478.49 C704.55,477.54 705.06,478.25 705.67,482.16 C705.95,484.00 706.37,485.68 706.59,485.91 C706.80,486.13 706.47,486.93 705.85,487.68 C705.23,488.43 705.01,489.35 705.38,489.71 C705.75,490.08 706.74,489.39 707.58,488.19 C708.42,486.99 710.00,486.00 711.09,486.00 C712.17,486.00 713.26,485.44 713.50,484.75 C713.74,484.06 714.47,482.15 715.11,480.50 C716.88,475.96 716.85,473.99 714.97,472.98 C714.03,472.48 712.99,472.34 712.66,472.68 C712.32,473.01 711.47,472.84 710.77,472.29 C708.88,470.81 705.00,470.04 705.00,471.15 C705.00,471.68 704.61,471.88 704.14,471.59 C703.22,471.02 703.47,465.40 705.03,452.00 C706.48,439.52 707.07,424.35 706.18,421.97 C705.56,420.28 704.99,421.15 703.09,426.70 C701.98,429.94 700.67,433.18 699.16,436.42 C705.16,422.75 708.93,405.83 712.47,379.67 C713.61,371.27 714.95,363.39 716.27,357.14 C716.37,358.90 718.10,356.47 719.05,352.37 C720.41,346.54 720.10,343.85 718.56,348.04 C718.50,348.20 718.44,348.37 718.37,348.55 C718.77,347.23 719.14,346.14 719.49,345.33 C723.06,337.13 725.55,331.65 727.86,327.43 L 730.15 325.50 C732.11,323.85 734.54,320.92 735.56,319.00 ZM 556.64 260.49 C557.49,258.28 555.19,255.27 542.20,241.65 C531.57,230.50 507.30,204.48 488.00,183.54 C469.99,164.00 456.95,149.21 454.47,145.50 C451.08,140.44 448.03,137.10 445.59,135.79 C444.55,135.23 444.09,135.09 443.99,136.86 C444.02,134.16 444.49,134.00 445.72,134.00 C450.24,134.00 467.51,140.71 483.00,148.48 C501.98,158.00 530.15,177.09 548.87,192.55 C548.22,192.17 550.11,194.18 554.75,198.87 L 564.00 208.21 L 564.29 226.50 L 566.26 208.84 L 566.31 208.89 L 565.03 221.11 C564.27,228.34 564.03,236.83 564.43,241.91 C564.82,246.94 566.24,255.98 567.58,262.87 C567.38,261.96 567.18,261.03 566.99,260.10 C565.76,254.17 564.98,252.07 564.47,253.33 C564.06,254.33 564.28,257.00 564.96,259.27 C566.06,262.93 566.00,263.53 564.40,264.70 C563.41,265.42 561.68,265.73 560.55,265.39 C559.11,264.96 558.80,265.13 559.81,266.13 C555.81,263.07 549.87,258.89 545.64,256.17 C540.77,253.05 534.86,249.08 532.51,247.35 C528.74,244.56 526.91,243.39 516.42,238.17 C526.80,243.34 528.64,244.50 532.34,247.20 C538.60,251.77 554.39,261.94 555.28,261.97 C555.71,261.99 556.32,261.32 556.64,260.49 ZM 573.16 621.75 C579.51,614.90 580.37,614.11 581.07,614.54 C581.47,614.79 582.14,614.20 582.56,613.24 C583.61,610.85 583.73,610.35 583.88,607.63 C583.96,606.10 585.27,604.41 587.57,602.88 L 587.58 602.88 C589.51,601.59 591.41,599.33 593.37,595.92 C592.58,597.52 591.71,599.24 590.75,601.12 C583.73,614.89 574.81,627.10 565.13,636.24 C556.28,644.59 541.36,654.80 531.13,659.52 C530.69,659.73 530.25,659.92 529.84,660.11 C530.56,659.59 530.31,659.17 529.32,658.17 C528.53,657.39 528.10,657.05 527.65,657.19 C529.98,654.53 532.73,650.42 538.43,641.20 C545.50,629.77 551.76,616.57 557.94,599.86 C557.38,601.38 556.87,602.74 556.42,603.89 C552.92,612.87 552.23,615.58 553.16,616.69 C553.22,616.76 553.27,616.83 553.33,616.89 C553.71,617.56 554.37,618.07 555.30,618.61 C555.51,618.74 555.71,618.85 555.92,618.95 C556.00,619.00 556.08,619.04 556.17,619.09 C557.33,619.71 558.65,619.72 559.76,619.13 C561.83,618.02 565.00,619.88 565.00,622.19 C565.00,626.16 569.30,625.92 573.16,621.75 ZM 473.13 143.87 C468.52,141.69 464.60,140.07 464.41,140.26 C463.79,140.88 478.19,148.00 479.87,147.91 C480.77,147.87 477.73,146.05 473.13,143.87 ZM 686.68 457.31 C683.21,462.06 679.32,466.76 675.03,471.39 C673.48,473.05 671.34,475.05 668.76,477.24 C674.80,471.88 679.74,466.25 686.15,458.00 C686.33,457.77 686.51,457.54 686.68,457.31 ZM 561.88 204.34 C560.28,202.69 557.69,200.23 555.16,197.93 C557.73,200.21 560.00,202.37 561.90,204.34 L 566.26 208.84 ZM 731.27 321.92 C732.44,320.27 733.68,318.76 735.09,317.20 C733.89,318.58 732.49,320.32 731.27,321.92 ZM 569.63 271.49 C570.04,272.58 569.94,273.05 569.19,272.83 C569.75,272.90 569.87,272.44 569.63,271.49 ZM 524.95 661.58 C525.10,661.84 525.52,661.87 526.22,661.69 C525.74,661.89 525.44,662.00 525.38,662.00 C525.11,662.00 524.98,661.84 524.95,661.58 ZM 785.73 288.60 C785.62,288.45 785.30,288.24 784.79,287.94 C784.73,287.91 784.65,287.87 784.57,287.84 C785.47,288.10 785.91,288.38 785.73,288.60 ZM 782.04 298.94 C782.89,297.92 783.72,296.97 784.49,296.15 C785.94,294.62 787.20,293.36 788.46,292.24 C787.12,293.44 785.76,294.82 784.15,296.56 C783.44,297.32 782.73,298.11 782.04,298.94 ZM 601.01 577.72 C601.45,576.42 601.89,575.07 602.33,573.68 C602.87,572.01 603.42,570.25 603.98,568.41 C602.89,571.99 601.94,575.00 601.01,577.72 ZM 445.35 155.65 C445.58,157.42 445.81,158.87 446.01,159.73 C446.56,162.06 447.45,167.11 447.99,170.96 C447.45,167.11 446.55,162.06 446.01,159.73 C445.81,158.88 445.58,157.43 445.35,155.65 ZM 782.80 289.08 C783.22,289.03 783.62,289.00 784.00,288.99 C784.09,288.99 784.18,288.99 784.26,288.99 C783.91,289.02 783.49,289.05 783.00,289.07 ZM 565.40 577.92 C565.60,577.29 565.80,576.65 566.00,576.00 C568.68,567.38 570.21,562.32 571.37,559.32 C570.21,562.32 568.68,567.38 566.00,576.00 C565.81,576.63 565.60,577.27 565.40,577.92 ZM 629.78 539.45 C632.22,538.77 634.68,538.04 637.19,537.26 C634.75,538.03 632.28,538.76 629.78,539.45 ZM 804.80 282.55 C804.90,282.50 805.01,282.45 805.11,282.40 C808.92,280.65 813.87,278.56 819.25,276.41 C813.73,278.62 808.66,280.76 804.80,282.55 Z" fill="rgb(239,165,53)"/>
<path d="M 492.89 274.23 C490.50,273.20 487.31,271.86 484.00,270.50 C480.09,268.88 475.43,266.90 471.52,265.20 C469.10,264.14 466.97,263.20 465.50,262.52 C461.65,260.74 457.38,258.93 456.00,258.50 C443.99,254.75 378.78,219.46 371.59,212.82 C370.54,211.85 366.97,209.13 363.66,206.78 L 363.66 206.78 L 363.66 206.78 C360.34,204.42 354.78,199.89 351.29,196.70 L 344.94 190.89 L 351.22 191.58 C354.67,191.95 358.62,192.83 360.00,193.53 C361.38,194.23 366.77,195.33 372.00,195.97 C377.23,196.62 384.20,197.96 387.50,198.96 C390.80,199.95 395.75,201.33 398.50,202.02 C401.25,202.71 405.75,203.93 408.50,204.73 C411.25,205.53 415.17,206.53 417.21,206.95 C419.25,207.37 422.17,208.54 423.69,209.54 C425.22,210.54 428.05,211.69 429.99,212.10 C431.92,212.51 435.52,213.52 438.00,214.34 C440.48,215.15 446.54,217.10 451.47,218.66 C456.40,220.22 462.49,222.90 464.99,224.61 C467.50,226.32 470.66,228.05 472.02,228.44 C473.39,228.84 476.30,229.96 478.50,230.94 C480.70,231.91 483.77,233.02 485.32,233.39 C488.65,234.20 491.00,238.92 491.00,244.84 C491.00,246.99 491.67,250.66 492.50,253.00 C493.33,255.34 494.00,259.61 494.00,262.49 C494.00,266.05 494.59,268.50 495.84,270.12 C497.23,271.92 499.33,276.96 498.71,276.95 C498.47,276.75 498.23,276.60 498.00,276.48 C497.32,276.14 495.41,275.30 492.89,274.23 ZM 626.41 352.01 C616.42,343.85 610.56,339.04 601.00,331.17 C599.08,329.58 594.35,326.14 590.50,323.52 C586.65,320.90 581.92,317.54 580.00,316.06 C575.79,312.81 554.74,300.00 553.61,300.00 C553.17,300.00 551.61,299.18 550.15,298.17 C548.69,297.17 545.92,295.72 544.00,294.96 C542.08,294.19 535.94,290.98 530.38,287.83 C524.81,284.68 518.96,281.78 517.38,281.39 C512.40,280.17 510.37,278.14 508.68,272.74 C506.50,265.78 502.69,244.98 503.45,244.22 C504.25,243.42 510.85,245.81 514.06,248.07 C515.46,249.05 518.61,250.65 521.06,251.60 C523.50,252.56 527.31,254.57 529.52,256.06 C531.73,257.56 535.11,259.47 537.02,260.30 C540.26,261.71 542.73,263.57 549.00,269.29 C553.78,273.66 562.52,279.81 566.00,281.26 C567.92,282.06 571.72,284.69 574.44,287.11 C583.81,295.44 604.50,315.39 605.92,317.44 C607.32,319.48 615.07,327.86 624.25,337.25 C627.28,340.36 629.00,342.99 629.00,344.54 C629.00,346.06 630.88,349.06 634.00,352.50 C636.75,355.54 639.00,358.44 639.00,358.95 C639.00,361.59 636.37,360.14 626.41,352.01 Z" fill="rgb(247,163,117)"/>
<path d="M 697.67 424.53 L 697.67 424.53 C698.72,421.61 699.60,418.67 700.44,415.15 C701.00,412.91 701.51,410.64 701.97,408.32 C701.59,410.56 701.28,412.21 701.10,413.00 C700.52,415.48 700.04,417.86 700.02,418.31 C700.01,418.75 700.43,418.85 700.96,418.52 C701.49,418.20 702.20,416.26 702.55,414.21 C702.89,412.17 704.30,405.77 705.67,400.00 C708.00,390.24 710.16,366.66 708.60,368.11 C708.29,368.40 707.04,375.38 705.68,384.35 C707.00,375.37 708.69,365.65 710.05,358.91 C710.04,359.93 710.54,359.80 711.51,358.99 C713.88,357.03 717.10,348.93 717.38,344.23 C717.52,341.88 718.17,339.43 718.82,338.78 C719.47,338.13 720.00,336.09 720.00,334.24 C720.00,331.46 721.06,329.81 726.07,324.77 C729.41,321.41 733.42,316.15 734.98,313.08 C738.57,306.01 742.61,302.18 748.70,300.06 C752.86,298.60 760.31,294.89 771.15,288.85 C772.70,287.98 773.29,287.17 773.08,286.67 C773.88,286.67 774.77,286.69 775.79,286.72 C776.27,286.74 776.74,286.76 777.21,286.78 C778.52,286.88 779.94,287.02 781.30,287.18 C782.66,287.37 783.79,287.60 784.57,287.84 C784.65,287.87 784.73,287.91 784.79,287.94 C785.30,288.24 785.62,288.45 785.73,288.60 C785.59,288.76 785.13,288.90 784.26,288.99 C784.18,288.99 784.09,288.99 784.00,288.99 C783.62,289.00 783.22,289.03 782.80,289.08 C780.83,289.15 780.16,289.22 780.60,289.44 C769.68,291.79 749.54,302.87 739.90,312.27 C739.38,312.78 738.88,313.27 738.40,313.75 C738.04,314.03 737.26,314.81 736.20,315.95 C735.86,316.31 735.49,316.74 735.09,317.20 C735.09,317.20 735.08,317.20 735.08,317.20 C733.67,318.76 732.44,320.27 731.27,321.92 C730.71,322.66 730.19,323.37 729.75,324.00 L 726.60 328.50 L 727.86 327.43 C725.55,331.65 723.06,337.13 719.49,345.33 C719.14,346.14 718.77,347.23 718.37,348.55 C717.69,350.50 716.89,353.29 716.52,355.04 C716.31,356.02 716.24,356.71 716.27,357.14 C714.95,363.39 713.61,371.27 712.47,379.67 C708.93,405.83 705.16,422.75 699.16,436.42 C695.90,443.44 691.73,450.42 686.68,457.31 C686.51,457.54 686.33,457.77 686.15,458.00 C679.74,466.25 674.80,471.88 668.76,477.24 C663.57,481.67 656.59,486.91 649.13,491.94 C642.56,496.37 608.43,514.00 606.42,514.00 C605.80,514.00 603.22,515.58 600.70,517.50 C598.18,519.42 595.79,521.00 595.40,521.00 C594.35,521.00 584.88,527.01 582.24,529.36 C580.95,530.50 579.08,534.38 577.91,538.31 C576.77,542.13 575.60,545.87 575.31,546.63 C574.55,548.61 582.63,548.41 598.68,546.05 C609.37,544.48 619.34,542.38 629.80,539.44 C629.93,539.41 630.07,539.37 630.20,539.33 C632.50,538.68 634.82,538.00 637.18,537.27 L 637.19 537.26 C639.43,536.57 641.70,535.84 644.02,535.07 C652.38,532.28 662.46,528.01 667.34,525.42 C672.56,522.86 677.43,520.15 681.86,517.31 C691.83,510.93 706.78,498.14 714.00,489.80 C735.68,464.75 745.27,440.24 752.02,392.66 C753.73,380.66 756.22,365.65 757.56,359.32 C758.90,352.98 760.00,346.58 760.00,345.10 C760.00,343.61 760.38,341.97 760.85,341.45 C761.31,340.93 763.15,336.23 764.93,331.00 C768.96,319.19 774.23,308.95 780.30,301.10 C780.88,300.36 781.47,299.63 782.04,298.94 C782.73,298.11 783.44,297.32 784.15,296.56 C785.76,294.83 787.12,293.44 788.46,292.24 L 788.46 292.24 C791.37,289.65 794.25,287.83 799.38,285.20 L 799.38 285.20 L 802.56 283.62 C803.24,283.28 803.99,282.92 804.80,282.55 L 804.80 282.55 C806.38,281.81 808.16,281.02 810.10,280.19 C799.69,284.83 792.50,288.86 792.50,290.57 C792.50,291.63 789.69,295.26 786.25,298.63 C782.81,302.01 780.00,305.42 780.00,306.21 C780.00,307.00 778.89,308.70 777.53,309.97 C776.17,311.25 774.52,313.91 773.87,315.89 C773.22,317.87 771.40,322.19 769.84,325.50 C768.28,328.80 767.00,332.62 766.99,334.00 C766.99,335.38 766.33,337.76 765.53,339.29 C764.73,340.83 763.78,343.65 763.42,345.55 C763.07,347.46 762.37,349.27 761.89,349.57 C761.40,349.87 761.00,351.63 761.00,353.48 C761.00,356.67 760.10,361.89 757.80,372.00 C757.24,374.48 756.20,381.67 755.50,388.00 C753.30,407.80 751.04,420.32 748.21,428.50 C747.63,430.15 746.39,433.98 745.45,437.00 C744.51,440.02 743.18,443.85 742.50,445.50 C739.87,451.91 738.16,456.66 737.10,460.50 C736.50,462.70 733.64,467.66 730.75,471.51 C727.86,475.37 724.83,479.86 724.00,481.49 C723.17,483.12 720.36,486.69 717.75,489.42 C715.14,492.15 713.00,494.59 713.00,494.84 C713.00,495.95 702.74,505.00 701.49,505.00 C700.72,505.00 698.66,506.78 696.92,508.95 C693.47,513.25 688.32,517.04 680.50,521.04 C677.75,522.45 673.30,524.81 670.60,526.30 C667.91,527.78 664.93,529.00 663.99,529.00 C663.04,529.00 661.20,529.82 659.88,530.83 C657.09,532.96 643.78,538.00 640.92,538.00 C639.84,538.00 635.89,539.54 632.16,541.42 C628.42,543.30 622.17,545.50 618.26,546.31 C614.36,547.12 610.72,548.05 610.18,548.39 C609.64,548.72 608.88,552.22 608.48,556.16 C608.09,560.09 607.20,564.71 606.51,566.41 C605.81,568.11 604.95,571.75 604.59,574.50 C604.03,578.68 598.27,592.10 591.48,605.00 C590.75,606.38 588.44,610.83 586.33,614.91 C583.41,620.56 580.67,623.97 574.75,629.35 C570.49,633.22 567.00,636.93 567.00,637.61 C567.00,639.01 555.41,648.00 553.60,648.00 C552.95,648.00 550.68,649.77 548.57,651.92 C546.47,654.08 543.64,656.12 542.29,656.46 C540.94,656.80 538.11,658.22 535.99,659.62 C533.87,661.03 530.34,662.41 528.14,662.71 L 524.14 663.25 L 524.61 659.87 C525.39,654.38 527.17,650.70 530.69,647.32 C532.51,645.57 534.00,643.66 534.00,643.07 C534.00,642.48 535.52,640.32 537.37,638.25 C539.22,636.19 541.08,633.38 541.51,632.01 C541.94,630.65 543.34,627.93 544.63,625.98 C545.92,624.03 547.27,620.20 547.63,617.47 C547.99,614.74 549.35,610.38 550.64,607.78 C551.94,605.19 553.00,602.35 553.00,601.47 C553.00,600.59 554.05,598.43 555.33,596.68 C560.24,589.97 564.99,576.33 566.86,563.62 C567.67,558.06 568.46,556.12 570.93,553.57 C573.10,551.34 574.12,549.18 574.40,546.27 C574.62,544.00 575.14,541.59 575.55,540.92 C575.97,540.24 576.23,537.63 576.15,535.10 C575.99,530.64 576.18,530.34 582.08,525.25 C585.43,522.36 589.08,520.00 590.19,520.00 C591.30,520.00 594.45,518.88 597.19,517.50 C599.92,516.12 602.81,515.00 603.60,515.00 C604.40,515.00 607.33,512.74 610.12,509.97 C616.27,503.89 618.93,502.45 628.50,500.00 C638.24,497.51 641.12,495.91 645.51,490.55 C647.53,488.09 650.15,485.78 651.34,485.42 C652.53,485.06 654.40,483.94 655.51,482.94 C656.62,481.93 660.05,479.98 663.15,478.61 C668.72,476.15 671.97,472.83 673.98,467.56 C674.54,466.08 676.24,463.23 677.75,461.24 C679.26,459.25 677.12,460.98 673.00,465.08 C672.59,465.49 672.17,465.90 671.73,466.32 C672.09,465.96 672.44,465.59 672.80,465.23 C673.77,464.38 675.16,462.94 676.54,461.30 C680.60,456.49 683.00,453.47 683.92,451.64 C685.06,450.02 686.15,448.37 687.19,446.69 C686.46,447.95 685.66,449.29 684.79,450.75 C682.20,455.06 683.74,454.86 688.69,450.25 C691.72,447.42 692.87,445.46 693.36,442.25 C693.73,439.91 694.49,438.00 695.07,438.00 C695.65,438.00 695.89,437.64 695.62,437.19 C695.35,436.75 696.22,434.45 697.56,432.09 C699.09,429.40 699.99,426.25 699.97,423.65 C699.94,419.88 699.83,419.79 696.77,427.12 C697.08,426.27 697.38,425.41 697.67,424.53 ZM 569.45 270.85 C569.15,269.90 568.38,266.59 567.58,262.87 C566.24,255.98 564.82,246.94 564.43,241.91 C564.03,236.83 564.27,228.34 565.03,221.11 L 566.31 208.89 L 566.26 208.84 L 561.88 204.34 L 566.26 208.84 L 561.90 204.34 C560.00,202.37 557.73,200.21 555.16,197.93 L 555.16 197.93 C553.88,196.76 552.61,195.64 551.50,194.68 C550.06,193.45 549.17,192.73 548.87,192.55 C530.15,177.09 501.98,158.00 483.00,148.48 C467.51,140.71 450.24,134.00 445.72,134.00 C444.49,134.00 444.02,134.16 443.99,136.86 C443.92,138.23 444.07,140.76 444.35,145.13 C444.58,148.72 444.97,152.64 445.35,155.65 C445.58,157.43 445.81,158.88 446.01,159.73 C446.54,161.99 447.39,166.79 447.94,170.58 C447.96,170.71 447.98,170.83 447.99,170.96 L 447.99 170.96 L 447.99 170.96 C448.54,174.80 449.95,180.77 451.14,184.23 C454.20,193.13 463.43,212.18 465.68,214.22 C466.73,215.16 470.49,216.90 474.04,218.09 C477.59,219.27 481.17,220.64 482.00,221.12 C482.83,221.61 491.83,226.08 502.00,231.07 C506.48,233.26 510.17,235.08 513.25,236.60 C514.39,237.16 515.44,237.68 516.42,238.17 C526.91,243.39 528.74,244.56 532.51,247.35 C534.86,249.08 540.77,253.05 545.64,256.17 C549.87,258.89 555.81,263.07 559.81,266.13 C560.58,266.88 562.12,268.12 564.50,269.92 C566.97,271.79 568.46,272.74 569.19,272.83 C569.45,272.91 569.63,272.90 569.74,272.81 C569.73,272.95 569.72,273.08 569.70,273.20 C569.25,276.57 569.48,277.24 571.34,277.93 C572.53,278.38 574.55,278.74 575.83,278.75 C577.75,278.75 578.05,278.37 577.54,276.62 C577.15,275.32 576.72,273.77 576.26,272.09 L 578.32 279.09 L 590.91 290.43 C610.00,307.63 624.59,323.20 636.82,339.75 C636.10,338.89 635.57,338.36 635.32,338.27 C633.53,337.68 633.26,342.20 634.92,345.00 C635.73,346.38 638.50,349.78 641.08,352.56 C643.65,355.35 646.07,359.05 646.45,360.79 C646.90,362.81 648.13,364.45 649.83,365.31 C652.41,366.61 653.65,366.59 653.42,365.34 C654.19,366.62 654.92,367.82 655.59,368.89 C653.84,366.44 652.56,367.08 652.19,370.76 C651.74,375.31 654.48,379.95 658.04,380.66 C661.30,381.31 661.82,383.33 659.52,386.38 C658.53,387.67 657.54,388.01 656.30,387.47 C655.31,387.04 653.95,386.77 653.28,386.88 C652.61,386.99 651.79,386.00 651.46,384.69 C651.13,383.39 649.48,381.80 645.45,379.28 C649.99,381.62 654.67,383.70 655.15,383.41 C655.55,383.16 655.23,381.40 654.44,379.51 C650.32,369.64 634.27,345.19 622.60,331.00 C613.92,320.45 592.44,299.00 580.48,288.95 C563.00,274.25 541.40,259.68 517.00,246.10 L 500.50 236.93 L 500.18 240.59 C500.00,242.70 500.48,247.39 501.31,252.66 C500.48,248.35 499.91,247.50 498.47,247.50 C495.74,247.50 495.41,252.94 497.55,262.58 C498.87,268.50 499.57,270.04 500.86,269.79 C502.85,269.42 503.28,265.32 502.14,257.56 C503.05,262.53 504.16,267.49 505.22,270.94 C506.51,275.13 508.03,279.28 509.77,283.38 C509.23,283.05 508.52,283.08 507.88,283.72 C507.06,284.54 507.13,285.22 508.13,286.31 C509.34,287.62 509.60,287.62 510.35,286.30 C510.52,286.01 510.62,285.71 510.66,285.42 C513.19,291.07 516.12,296.58 519.38,301.82 L 519.38 301.83 C519.86,302.60 520.35,303.38 520.85,304.17 C519.27,301.78 516.99,298.10 515.57,295.63 C512.65,290.54 511.04,290.67 511.02,296.00 C511.00,300.11 518.94,310.77 521.05,309.47 C521.50,309.19 522.14,309.42 522.49,309.98 C522.84,310.54 523.65,310.99 524.31,310.98 C525.02,310.98 524.90,310.58 524.00,310.00 C523.17,309.47 522.86,309.02 523.30,309.02 C523.63,309.01 523.18,307.90 522.25,306.34 C523.12,307.67 524.12,309.07 525.22,310.53 C525.82,311.48 526.60,312.59 527.58,313.89 C530.08,317.22 532.08,319.44 533.67,320.64 C534.79,321.86 535.93,323.03 537.09,324.18 C537.41,324.49 537.73,324.80 538.04,325.11 L 538.04 325.11 C539.88,326.95 541.71,328.67 543.43,330.19 C541.73,328.76 539.89,327.08 537.76,325.09 C534.17,321.74 531.03,319.00 530.76,319.00 C530.49,319.00 530.69,321.30 531.20,324.10 C531.42,325.34 531.58,326.52 531.66,327.49 C531.36,326.92 530.90,326.33 530.38,325.90 C527.29,323.33 516.24,308.46 513.00,302.50 C505.44,288.60 499.00,273.81 499.00,270.33 C499.00,269.32 497.88,264.00 496.51,258.50 C495.14,253.00 493.97,246.25 493.91,243.50 C493.77,237.21 492.87,233.93 490.98,232.84 C489.98,232.27 484.24,229.58 478.08,226.77 C483.70,229.22 486.00,229.50 486.00,227.83 C486.00,225.79 482.78,223.00 480.42,223.00 C479.17,223.00 477.41,222.27 476.52,221.38 C474.66,219.52 470.38,219.22 468.76,220.84 C467.98,221.62 469.76,222.90 475.09,225.41 L 475.13 225.42 C472.41,224.19 469.75,223.00 467.50,222.01 C458.43,218.02 424.68,206.26 412.99,203.00 C406.67,201.24 398.80,198.98 395.50,197.96 C386.91,195.33 356.55,189.07 344.75,187.51 C338.88,186.73 338.74,187.50 343.13,196.84 C343.44,197.50 343.79,198.25 344.16,199.05 C344.94,200.83 345.89,202.86 346.97,205.05 C347.89,207.03 348.78,208.95 349.50,210.50 C351.83,215.51 356.12,222.65 360.88,229.69 C363.60,233.81 366.29,237.56 369.14,241.17 L 369.14 241.17 C371.68,244.47 374.11,247.39 376.19,249.59 C381.74,255.45 387.20,260.75 392.80,265.62 L 392.90 265.70 C402.85,274.59 413.36,282.02 427.18,289.48 L 427.18 289.48 C437.93,295.38 450.03,300.93 464.34,306.65 C468.17,308.23 472.19,309.84 476.43,311.51 L 476.43 311.51 C479.66,312.82 481.94,313.77 482.50,314.03 C483.60,314.54 492.60,317.64 502.50,320.92 C512.40,324.19 522.08,327.56 524.00,328.40 C524.90,328.79 525.77,329.11 526.58,329.35 C526.47,329.32 526.35,329.30 526.23,329.27 C523.63,328.66 519.03,328.10 516.01,328.02 C509.78,327.86 503.68,325.48 500.00,321.78 C497.03,318.80 483.73,314.00 478.90,314.17 C475.15,314.30 468.78,313.10 468.00,312.12 C466.71,310.50 459.20,306.05 456.74,305.45 C455.22,305.08 453.73,304.38 453.43,303.89 C453.13,303.40 452.21,303.00 451.38,303.00 C449.10,303.00 434.87,295.83 434.32,294.40 C434.06,293.71 432.13,292.86 430.04,292.51 C427.95,292.15 425.40,291.22 424.37,290.43 C418.85,286.20 414.13,283.59 411.08,283.07 C408.44,282.62 407.44,281.83 406.69,279.58 C405.56,276.18 401.94,272.75 397.00,270.40 C395.08,269.49 391.52,267.14 389.11,265.18 C382.43,259.78 365.92,242.79 364.96,240.32 C363.94,237.71 353.19,221.07 351.29,219.16 C349.04,216.89 347.04,212.33 346.76,208.83 C346.60,206.72 345.32,204.22 343.26,202.00 C340.39,198.90 340.02,197.84 340.01,192.75 L 340.00 187.00 L 348.07 187.00 C352.50,187.00 357.06,187.50 358.19,188.10 C360.16,189.16 366.77,190.51 384.68,193.51 C389.19,194.26 397.61,196.48 403.39,198.44 C409.18,200.40 415.49,202.00 417.40,202.00 C419.32,202.00 421.15,202.44 421.48,202.97 C421.81,203.51 423.98,204.44 426.29,205.05 C428.61,205.65 433.42,207.58 437.00,209.32 C442.39,211.95 444.69,212.49 450.47,212.49 L 457.44 212.50 L 457.14 208.00 C456.87,203.86 450.54,188.85 447.44,185.00 C446.78,184.18 445.98,180.80 445.66,177.50 C445.34,174.20 444.86,169.16 444.59,166.30 C444.33,163.44 443.30,159.86 442.31,158.36 C440.95,156.27 440.43,153.09 440.16,145.06 C439.82,134.75 439.87,134.44 442.43,132.05 C444.89,129.75 445.33,129.67 449.53,130.80 C453.98,131.99 457.47,133.43 470.00,139.28 C493.18,150.08 499.40,153.16 501.80,155.01 C503.28,156.15 507.42,158.93 511.00,161.17 C514.58,163.42 518.72,166.10 520.21,167.13 C521.70,168.16 523.39,169.00 523.96,169.00 C524.53,169.00 528.20,171.94 532.11,175.53 C536.03,179.13 540.64,182.77 542.37,183.62 C544.09,184.47 547.30,186.95 549.50,189.13 C551.70,191.31 555.47,194.66 557.88,196.57 C560.29,198.49 563.64,201.96 565.32,204.28 C568.01,207.99 568.43,209.50 568.82,216.75 C569.12,222.44 570.05,225.89 570.60,225.02 C570.16,231.03 570.04,238.56 570.49,243.15 C570.79,246.30 571.23,249.58 571.80,252.92 C571.55,252.21 571.12,251.51 570.62,251.10 C568.57,249.40 567.64,257.21 569.08,263.94 C569.61,266.40 569.89,269.71 569.80,271.99 C569.76,271.84 569.70,271.67 569.63,271.49 C569.59,271.30 569.53,271.08 569.45,270.85 ZM 573.79 555.34 C573.32,555.47 573.02,555.58 572.91,555.69 C572.60,556.00 572.04,557.36 571.37,559.32 C570.21,562.32 568.68,567.38 566.00,576.00 C565.80,576.65 565.60,577.29 565.40,577.92 C563.14,585.03 560.19,593.70 557.94,599.86 C551.76,616.57 545.50,629.77 538.43,641.20 C532.73,650.42 529.98,654.53 527.65,657.19 C527.30,657.31 526.93,657.74 526.38,658.50 C525.18,660.14 524.69,661.16 524.95,661.58 C524.98,661.84 525.11,662.00 525.38,662.00 C525.44,662.00 525.74,661.89 526.22,661.69 C526.77,661.55 527.49,661.28 528.39,660.87 C529.06,660.56 529.53,660.33 529.84,660.11 C530.25,659.92 530.69,659.73 531.13,659.52 C541.36,654.80 556.28,644.59 565.13,636.24 C574.81,627.10 583.73,614.89 590.75,601.12 C591.71,599.24 592.58,597.52 593.37,595.92 C594.43,594.03 595.54,591.79 596.68,589.16 L 596.68 589.16 C597.37,587.58 598.07,585.86 598.79,584.00 C599.45,582.28 600.22,580.10 601.01,577.72 L 601.02 577.71 C601.94,575.00 602.89,571.99 603.98,568.41 C605.91,562.07 607.02,558.09 607.38,555.64 C607.42,555.41 607.45,555.20 607.47,555.03 L 607.89 551.72 L 604.60 552.05 C600.09,552.33 585.10,553.74 577.20,554.65 C575.84,554.80 574.91,554.80 574.13,555.16 C574.02,555.21 573.90,555.27 573.79,555.34 ZM 623.50 326.00 C624.38,327.43 624.66,327.25 624.68,325.25 C624.70,323.17 589.70,288.00 587.61,288.00 C586.82,288.00 585.27,286.76 584.16,285.25 C583.06,283.74 581.82,282.85 581.39,283.27 C580.97,283.70 581.61,284.74 582.82,285.59 C584.04,286.44 585.94,288.93 587.06,291.13 C589.16,295.24 594.66,300.92 596.60,300.97 C597.20,300.99 598.50,301.90 599.50,303.00 C600.50,304.10 601.73,305.00 602.23,305.00 C603.87,305.00 611.00,313.10 611.00,314.96 C611.00,317.31 618.70,325.00 621.06,325.00 C622.06,325.00 623.16,325.45 623.50,326.00 ZM 568.16 245.13 C569.73,250.40 571.44,250.13 570.60,244.75 C570.24,242.41 569.66,237.81 569.31,234.53 C568.86,230.24 568.46,229.11 567.91,230.53 C566.74,233.53 566.86,240.81 568.16,245.13 ZM 584.86 551.14 C583.99,551.72 585.49,551.94 589.00,551.77 C595.96,551.43 595.78,549.57 588.76,549.30 C585.87,549.19 584.11,549.35 584.86,549.67 C586.01,550.15 586.01,550.38 584.86,551.14 ZM 522.67 248.33 C523.88,249.55 526.00,249.02 526.00,247.50 C526.00,246.67 525.11,246.00 524.00,246.00 C522.01,246.00 521.40,247.07 522.67,248.33 ZM 767.01 287.61 C761.25,290.09 751.17,295.54 747.71,298.20 C747.43,298.41 747.14,298.64 746.85,298.87 C750.74,295.74 753.88,293.97 760.12,290.78 C763.16,289.23 765.24,288.23 767.01,287.61 ZM 648.00 485.65 C648.24,485.49 648.47,485.33 648.71,485.18 C642.11,489.87 636.80,492.99 635.76,492.35 C635.74,492.34 635.72,492.32 635.72,492.29 C635.76,492.32 635.80,492.35 635.86,492.36 C635.92,492.41 636.00,492.43 636.11,492.43 C636.64,492.47 637.84,491.95 639.73,490.87 C641.66,489.78 644.35,488.07 648.00,485.65 ZM 617.35 364.33 C624.69,367.87 631.47,371.35 637.40,374.63 C637.48,374.69 637.56,374.74 637.63,374.79 C633.58,372.59 628.45,369.92 622.00,366.64 C620.54,365.90 618.99,365.13 617.35,364.33 ZM 571.95 216.08 C571.61,216.73 571.29,218.35 571.02,220.54 C571.06,218.04 571.28,216.54 571.95,216.08 ZM 658.98 373.95 C659.00,373.97 659.02,373.98 659.03,373.98 C659.09,373.98 659.17,373.94 659.28,373.86 C659.16,373.95 659.07,374.00 659.01,374.00 C658.71,374.00 657.60,372.41 656.56,370.47 C656.50,370.37 656.45,370.27 656.39,370.17 C656.77,370.78 657.13,371.33 657.44,371.81 L 657.44 371.81 C657.69,372.19 657.91,372.53 658.10,372.82 C658.55,373.50 658.86,373.91 658.98,373.95 ZM 712.17 349.89 C713.22,345.83 713.89,342.68 713.74,342.41 C713.75,342.41 713.75,342.42 713.75,342.42 C713.97,342.63 713.26,345.96 712.17,349.89 ZM 577.85 346.97 C586.01,350.28 594.53,353.90 602.54,357.45 C604.70,358.42 606.84,359.39 608.94,360.36 C599.77,356.15 588.98,351.50 577.85,346.97 ZM 530.08 329.90 C530.80,329.87 531.35,329.71 531.67,329.40 C531.65,329.60 531.60,329.73 531.55,329.79 C531.41,329.93 530.86,329.96 530.08,329.90 ZM 725.09 321.28 C723.52,323.75 721.71,326.88 720.50,329.27 C722.02,326.26 723.48,323.69 725.09,321.28 ZM 572.66 257.58 C572.29,255.87 572.04,254.61 572.00,254.11 C572.21,255.26 572.43,256.42 572.66,257.58 ZM 734.04 310.62 C732.83,311.84 731.69,313.04 730.66,314.17 C731.69,313.02 732.81,311.85 734.04,310.62 ZM 703.28 400.22 C703.48,398.93 703.70,397.57 703.92,396.14 C703.69,397.63 703.47,399.07 703.25,400.46 C703.26,400.38 703.27,400.30 703.28,400.22 ZM 647.92 476.89 L 647.86 476.97 C650.35,473.67 652.68,470.24 654.83,466.72 C652.70,470.21 650.39,473.62 647.92,476.89 ZM 905.93 249.46 C907.16,249.16 907.94,249.00 908.16,249.00 C907.93,249.00 907.04,249.19 905.62,249.55 ZM 577.26 219.45 C578.20,220.38 579.27,221.50 580.51,222.81 C579.26,221.49 578.19,220.38 577.26,219.45 ZM 701.10 347.31 C700.17,347.71 699.23,348.12 698.30,348.53 L 698.29 348.53 C698.15,348.60 698.01,348.66 697.86,348.72 C698.93,348.25 700.02,347.78 701.10,347.31 Z" fill="rgb(250,233,201)"/>

</g>
</svg>